<?xml version="1.0" encoding="UTF-8"?>
<!DOCTYPE svg PUBLIC "-//W3C//DTD SVG 1.1//EN" "http://www.w3.org/Graphics/SVG/1.1/DTD/svg11.dtd">
<!-- Creator: CorelDRAW -->
<svg xmlns="http://www.w3.org/2000/svg" xml:space="preserve" width="259.934mm" height="75.744mm" version="1.1" style="shape-rendering:geometricPrecision; text-rendering:geometricPrecision; image-rendering:optimizeQuality; fill-rule:evenodd; clip-rule:evenodd"
viewBox="0 0 26024.86 7583.55"
 xmlns:xlink="http://www.w3.org/1999/xlink"
 xmlns:xodm="http://www.corel.com/coreldraw/odm/2003">
 <defs>
  <style type="text/css">
   <![CDATA[
    .fil0 {fill:white}
    .fil3 {fill:#292929}
    .fil4 {fill:#B0B2B4;fill-rule:nonzero}
    .fil1 {fill:url(#id12)}
    .fil2 {fill:url(#id13)}
    .fil5 {fill:url(#id14)}
   ]]>
  </style>
   <clipPath id="id0">
    <path d="M4586.74 68.36l-1456.99 0c234.58,-44.8 479.93,-67.72 727.42,-67.72l0 0c249.65,0 492.84,22.92 729.57,67.72zm316.36 72.92c96.85,27.08 191.54,57.3 286.24,90.64l-2662.17 0c92.54,-33.34 189.39,-63.56 286.23,-90.64l2089.71 0zm471.32 163.56c68.87,28.13 135.58,59.38 200.15,91.68l-3432.64 0c64.57,-32.3 131.28,-63.55 198,-91.68l3034.49 0zm342.19 163.56c53.79,29.18 107.6,60.42 159.25,91.68l-4035.23 0c51.65,-31.26 105.46,-62.51 159.25,-91.68l3716.73 0zm275.47 164.6c45.19,29.18 88.24,59.38 133.43,90.64l-4534.53 0c45.19,-31.26 88.24,-61.46 133.43,-90.64l4267.67 0zm230.27 163.56c38.75,29.18 77.48,60.42 116.22,90.64l-4960.65 0c38.74,-30.22 75.32,-61.46 114.07,-90.64l4730.36 0zm200.15 163.56c34.43,30.22 68.87,60.42 101.15,91.68l-5330.81 0c32.28,-31.26 66.72,-61.46 99,-91.68l5130.66 0zm176.47 164.6c30.14,29.18 60.26,59.38 88.24,90.64l-5660.08 0c30.13,-31.26 60.25,-61.46 90.39,-90.64l5481.46 0zm154.96 163.56c27.97,30.22 53.8,60.42 79.63,90.64l-5950.62 0c25.82,-30.22 51.65,-60.42 77.47,-90.64l5793.52 0zm139.89 163.56c23.67,30.22 47.35,60.42 71.02,90.64l-6213.18 0c23.67,-30.22 47.35,-60.42 71.02,-90.64l6071.15 0zm122.67 163.56c21.53,30.22 43.04,60.42 64.57,91.68l-6445.62 0c21.53,-31.26 40.89,-61.46 62.42,-91.68l6318.64 0zm111.92 164.6c19.36,29.18 36.58,60.42 55.95,90.64l-6652.21 0c17.21,-30.22 36.58,-61.46 55.95,-90.64l6540.31 0zm98.99 163.56c17.22,30.22 32.29,60.42 49.5,90.64l-6837.29 0c15.06,-30.22 32.28,-60.42 49.5,-90.64l6738.29 0zm88.24 163.56c15.07,30.22 30.14,60.42 43.04,91.68l-7003 0c15.06,-31.26 30.13,-61.46 45.19,-91.68l6914.77 0zm77.48 163.56c12.91,30.22 25.82,60.42 38.74,91.68l-7147.21 0c12.92,-31.26 25.83,-61.46 38.74,-91.68l7069.73 0zm68.86 164.6c10.76,30.22 21.53,60.42 34.43,90.64l-7276.33 0c10.76,-30.22 23.68,-60.42 34.44,-90.64l7207.46 0zm58.11 163.56c10.76,30.22 21.52,60.42 30.13,90.64l-7383.93 0c8.6,-30.22 19.36,-60.42 27.97,-90.64l7325.83 0zm51.65 163.56c6.46,20.85 10.76,41.68 17.21,61.47l0 30.21 -7470.02 0c8.61,-31.26 17.21,-61.46 25.82,-91.68l7426.98 0zm-7569.02 910.51c0,-30.21 2.15,-60.42 4.31,-90.63l7581.93 0 0 90.63 -7586.24 0zm8.61 -163.56c2.15,-31.25 4.31,-61.46 6.46,-91.67l7571.17 0 0 91.67 -7577.62 0zm15.07 -164.6c4.31,-30.21 8.61,-60.42 12.91,-90.63l7549.65 0 0 90.63 -7562.56 0zm23.67 -163.56c4.31,-30.21 10.76,-60.42 15.07,-90.63l7523.82 0 0 90.63 -7538.89 0zm30.14 -163.56c6.45,-30.21 12.91,-60.42 21.52,-90.63l7487.24 0 0 90.63 -7508.75 0z"/>
   </clipPath>
   <clipPath id="id1">
    <path d="M4511.38 54.61l-1306.85 0c213.89,-35.28 429.91,-53.97 654.49,-53.97l0 0c222.44,0 438.47,18.68 652.36,53.97zm340.07 72.66c100.53,26.98 201.05,57.09 299.44,91.33l-2585.87 0c98.39,-34.24 198.91,-64.35 299.44,-91.33l1986.99 0zm489.8 163.99c70.59,29.07 139.03,59.16 205.33,91.33l-3377.25 0c66.3,-32.17 134.74,-62.27 205.33,-91.33l2966.59 0zm350.77 163.99c53.47,29.07 109.08,59.16 160.41,91.33l-3988.96 0c51.33,-32.17 106.94,-62.27 160.41,-91.33l3668.14 0zm278.05 163.99c44.92,29.07 91.97,59.16 134.75,91.33l-4493.73 0c42.78,-32.17 89.83,-62.27 134.75,-91.33l4224.23 0zm235.27 163.99c38.51,29.06 77,59.16 115.5,90.3l-4925.77 0c38.5,-31.14 76.99,-61.24 115.5,-90.3l4694.78 0zm203.2 163.99c34.22,29.06 68.44,59.16 100.52,90.3l-5302.22 0c34.22,-31.14 66.31,-61.24 100.53,-90.3l5101.17 0zm177.52 162.95c29.95,30.1 59.89,60.2 89.83,91.34l-5635.87 0c29.94,-31.14 59.88,-61.24 89.83,-91.34l5456.21 0zm156.14 163.99c27.8,30.1 53.46,60.2 79.14,91.34l-5926.76 0c25.66,-31.14 51.33,-61.24 79.14,-91.34l5768.49 0zm141.16 163.99c23.53,30.1 47.06,60.2 70.59,91.34l-6191.98 0c23.53,-31.14 47.06,-61.24 70.59,-91.34l6050.81 0zm124.06 163.99c21.39,30.1 42.77,60.2 64.16,91.34l-6427.26 0c21.4,-31.14 42.78,-61.24 64.17,-91.34l6298.93 0zm111.21 163.99c19.25,30.1 38.5,60.2 57.75,91.34l-6636.86 0c19.24,-31.14 38.5,-61.24 57.75,-91.34l6521.36 0zm100.53 163.99c17.11,30.1 34.22,60.2 51.33,90.3l-6825.09 0c17.11,-30.1 34.22,-60.2 51.33,-90.3l6722.42 0zm89.83 163.99c14.97,30.1 29.95,60.2 44.91,90.3l-6989.78 0c12.84,-30.1 27.8,-60.2 44.91,-90.3l6899.95 0zm77 162.95c14.97,30.11 27.8,61.24 40.64,91.34l-7137.36 0c12.84,-30.1 25.67,-61.23 40.64,-91.34l7056.09 0zm70.58 163.99c10.69,30.11 23.53,61.24 34.22,91.34l-7265.68 0c10.69,-30.1 23.52,-61.23 34.22,-91.34l7197.24 0zm59.89 163.99c8.55,25.95 17.11,51.9 25.66,77.84l0 13.5 -7372.63 0c10.69,-31.14 19.25,-61.23 29.95,-91.34l7317.02 0zm-7513.8 1074.23c0,-30.1 2.14,-61.23 4.29,-91.34l7535.17 0 0 91.34 -7539.46 0zm8.56 -163.99c2.13,-30.1 6.42,-60.2 8.55,-91.33l7522.35 0 0 91.33 -7530.9 0zm17.11 -163.99c4.28,-30.1 8.55,-60.2 12.84,-90.3l7500.95 0 0 90.3 -7513.79 0zm23.53 -163.99c6.42,-30.1 10.69,-60.2 17.11,-90.3l7473.15 0 0 90.3 -7490.26 0zm32.08 -162.95c6.42,-31.14 12.84,-61.23 21.39,-91.34l7436.8 0 0 91.34 -7458.18 0zm38.5 -163.99c8.56,-31.14 17.11,-61.23 25.67,-91.34l7394.01 0 0 91.34 -7419.68 0z"/>
   </clipPath>
   <clipPath id="id2">
    <path d="M4695.05 90.08l-1672.6 0c269.43,-58.66 547.48,-90.08 836.3,-90.08l0 0c286.68,0 566.87,31.42 836.3,90.08zm282.36 72.28c90.53,27.23 181.05,57.62 269.43,91.13l-2778.32 0c88.38,-33.51 178.91,-63.9 269.43,-91.13l2239.47 0zm448.32 164.46c64.67,28.28 129.33,58.66 193.99,91.13l-3521.94 0c62.51,-32.47 127.17,-62.85 191.83,-91.13l3136.11 0zm329.78 163.41c53.89,29.34 103.46,59.71 155.19,91.13l-4106.05 0c51.73,-31.42 103.45,-61.79 155.19,-91.13l3795.67 0zm269.43 164.46c43.11,29.33 86.22,59.7 129.33,91.13l-4593.17 0c43.11,-31.43 86.21,-61.8 131.48,-91.13l4332.37 0zm226.32 163.41c38.8,29.34 75.44,59.71 112.08,91.13l-5011.32 0c36.64,-31.42 75.44,-61.79 112.09,-91.13l4787.16 0zm196.14 163.41c34.49,30.38 66.82,60.75 99.15,91.13l-5377.74 0c32.33,-30.38 64.66,-60.75 99.15,-91.13l5179.44 0zm172.44 164.46c30.18,29.33 60.35,59.71 88.37,91.13l-5701.05 0c30.18,-31.42 58.2,-61.8 88.38,-91.13l5524.31 0zm155.19 163.41c25.86,30.38 51.73,60.75 77.59,91.13l-5987.72 0c23.71,-30.38 49.57,-60.75 77.59,-91.13l5832.53 0zm135.79 164.46c23.71,29.33 47.42,59.7 68.97,91.13l-6244.22 0c23.71,-31.43 45.26,-61.8 68.97,-91.13l6106.27 0zm122.86 163.41c19.39,30.38 40.95,60.75 60.34,91.13l-6472.68 0c19.39,-30.38 40.95,-60.75 62.51,-91.13l6349.83 0zm107.77 164.46c19.39,29.33 38.8,59.7 56.04,90.08l-6679.61 0c19.4,-30.38 36.64,-60.75 56.05,-90.08l6567.53 0zm96.99 163.41c17.25,30.38 34.49,60.75 49.58,91.13l-6860.66 0c15.09,-30.38 32.33,-60.75 49.57,-91.13l6761.51 0zm88.38 163.41c12.93,30.38 28.01,60.75 43.1,91.13l-7024.47 0c15.09,-30.38 30.18,-60.75 45.26,-91.13l6936.1 0zm75.44 164.46c12.93,30.38 25.86,60.75 38.8,91.13l-7166.73 0c12.93,-30.38 25.86,-60.75 38.8,-91.13l7089.14 0zm66.81 163.41c12.94,30.38 23.71,60.75 34.49,91.13l-7291.75 0c10.78,-30.38 23.72,-60.75 34.49,-91.13l7222.77 0zm58.2 164.46c10.77,29.33 19.39,59.7 30.18,91.13l-7397.36 0c8.62,-31.43 17.24,-61.8 28.01,-91.13l7339.17 0zm51.73 163.41c4.31,16.76 8.62,34.57 12.93,51.33l0 39.8 -7477.1 0c6.47,-30.38 15.09,-60.75 23.71,-91.13l7440.47 0zm-7578.42 910.27c2.15,-30.38 2.15,-60.75 4.32,-91.13l7587.03 0 0 91.13 -7591.34 0zm8.62 -163.41c2.15,-30.38 4.32,-60.75 6.47,-91.13l7576.25 0 0 91.13 -7582.72 0zm15.09 -164.46c4.32,-30.38 6.47,-60.75 10.77,-91.13l7556.86 0 0 91.13 -7567.63 0zm21.56 -163.41c4.31,-30.38 10.77,-60.75 15.09,-91.13l7530.99 0 0 91.13 -7546.08 0zm30.18 -164.46c6.47,-30.38 12.93,-60.75 19.39,-91.13l7496.51 0 0 91.13 -7515.9 0z"/>
   </clipPath>
   <clipPath id="id3">
    <path d="M0.59 3739.78l7630.14 0 0 91.13 -7630.14 0c0,-12.57 0,-26.19 0,-38.76 0,-17.81 0,-34.57 0,-52.37zm7630.14 847.41c-4.33,20.96 -8.65,41.9 -12.98,62.86l-7517.62 0c-8.66,-30.38 -15.15,-60.76 -21.64,-91.14l7552.23 0 0 28.28zm-32.46 135.12c-6.49,31.43 -15.15,61.8 -23.8,91.14l-7433.23 0c-8.65,-29.34 -15.14,-59.71 -23.8,-91.14l7480.83 0zm-45.43 164.46c-8.66,30.38 -19.48,60.75 -30.3,91.13l-7329.36 0c-10.82,-30.38 -19.47,-60.75 -30.3,-91.13l7389.95 0zm-54.11 163.41c-10.82,30.38 -23.8,60.75 -34.62,91.13l-7212.5 0c-10.81,-30.38 -23.8,-60.75 -34.62,-91.13l7281.75 0zm-62.76 164.46c-12.99,30.38 -25.96,60.75 -38.95,91.13l-7076.17 0c-15.15,-30.38 -28.13,-60.75 -38.96,-91.13l7154.07 0zm-73.57 163.41c-12.99,30.38 -28.13,60.75 -43.28,91.13l-6922.53 0c-15.14,-30.38 -28.12,-60.75 -43.27,-91.13l7009.09 0zm-82.24 164.46c-15.14,30.38 -32.46,60.75 -49.77,90.08l-6745.08 0c-17.31,-29.33 -34.62,-59.7 -49.77,-90.08l6844.62 0zm-90.88 163.41c-19.47,30.38 -36.79,60.75 -56.27,91.13l-6550.33 0c-19.47,-30.38 -36.78,-60.75 -56.26,-91.13l6662.85 0zm-103.88 163.41c-21.64,31.42 -41.11,61.79 -62.76,91.13l-6329.6 0c-21.64,-29.34 -41.12,-59.71 -62.76,-91.13l6455.11 0zm-116.85 164.45c-21.64,30.38 -45.44,60.76 -69.24,91.14l-6082.91 0c-23.81,-30.38 -47.61,-60.76 -69.25,-91.14l6221.41 0zm-127.67 163.42c-25.97,31.42 -51.93,61.79 -80.07,91.13l-5805.93 0c-28.12,-29.34 -54.1,-59.71 -80.07,-91.13l5966.06 0zm-144.98 164.45c-30.3,30.38 -58.43,60.75 -88.73,91.13l-5498.64 0c-28.13,-30.38 -58.43,-60.75 -86.55,-91.13l5673.92 0zm-164.46 163.41c-32.46,31.43 -64.92,61.8 -99.55,91.13l-5148.07 0c-32.46,-29.33 -67.08,-59.7 -99.54,-91.13l5347.16 0zm-183.94 163.41c-38.95,31.43 -75.74,61.8 -114.69,91.13l-4749.9 0c-38.96,-29.33 -75.74,-59.7 -112.54,-91.13l4977.13 0zm-212.07 164.46c-43.28,31.43 -88.73,61.8 -132,91.13l-4291.15 0c-43.28,-29.33 -88.73,-59.7 -132,-91.13l4555.15 0zm-246.7 163.41c-51.93,31.43 -106.03,61.8 -157.97,91.13l-3745.82 0c-51.93,-29.33 -106.04,-59.7 -155.81,-91.13l4059.6 0zm-298.62 164.46c-64.92,31.42 -129.84,61.79 -196.93,91.13l-3070.67 0c-64.92,-29.34 -132,-59.71 -196.92,-91.13l3464.51 0zm-380.86 163.41c-93.05,33.52 -186.1,63.9 -279.16,91.13l-2142.33 0c-95.21,-27.23 -188.27,-57.61 -281.31,-91.13l2702.79 0zm-5143.75 -2857.55c-6.5,-30.38 -10.82,-60.75 -17.31,-91.13l7582.53 0 0 91.13 -7565.22 0zm-28.13 -164.45c-4.33,-30.38 -8.66,-60.75 -10.82,-91.13l7604.18 0 0 91.13 -7593.35 0zm-19.47 -163.41c-2.16,-30.38 -6.5,-60.75 -8.66,-91.13l7621.49 0 0 91.13 -7612.83 0zm-12.99 -164.46c0,-30.38 -2.16,-60.75 -2.16,-91.13l7627.98 0 0 91.13 -7625.81 0z"/>
   </clipPath>
   <clipPath id="id4">
    <path d="M0.56 3726.14l7583.35 0 0 91.13 -7583.35 0c0,-8.38 0,-16.76 0,-25.14 0,-22 0,-43.99 0,-65.99zm7583.35 1051.68c-2.14,7.34 -4.3,14.67 -6.45,22.01l-7439.26 0c-8.6,-29.34 -17.21,-59.71 -23.66,-91.14l7469.36 0 0 69.13zm-27.95 95.33c-8.6,30.38 -17.21,60.75 -27.96,91.13l-7340.32 0c-8.61,-30.38 -19.36,-60.75 -27.96,-91.13l7396.25 0zm-53.76 163.41c-10.75,30.38 -21.51,60.75 -32.27,91.14l-7224.19 0c-10.75,-30.39 -21.51,-60.76 -32.26,-91.14l7288.72 0zm-62.38 164.46c-10.75,30.38 -23.66,60.75 -38.71,91.13l-7086.55 0c-12.91,-30.38 -25.8,-60.75 -38.71,-91.13l7163.97 0zm-70.98 163.41c-12.9,30.38 -27.95,60.75 -43.01,91.14l-6935.99 0c-15.06,-30.39 -27.96,-60.76 -43.02,-91.14l7022.02 0zm-79.58 164.46c-17.2,30.38 -34.41,60.75 -49.46,90.09l-6761.79 0c-17.21,-29.34 -34.41,-59.71 -49.47,-90.09l6860.72 0zm-92.47 163.41c-17.21,30.38 -36.56,60.75 -55.92,91.14l-6566.08 0c-19.35,-30.39 -38.71,-60.76 -55.92,-91.14l6677.92 0zm-103.23 163.42c-19.36,31.42 -40.87,61.79 -62.38,91.13l-6346.7 0c-21.51,-29.34 -43.02,-59.71 -62.38,-91.13l6471.45 0zm-113.99 164.45c-23.66,30.38 -45.16,60.75 -68.82,91.14l-6105.83 0c-23.66,-30.39 -45.16,-60.76 -68.82,-91.14l6243.47 0zm-129.05 163.42c-23.66,31.42 -49.46,61.79 -77.42,91.13l-5830.54 0c-25.81,-29.34 -51.62,-59.71 -77.42,-91.13l5985.38 0zm-141.94 164.45c-30.12,30.38 -58.07,60.75 -88.19,91.14l-5525.14 0c-30.11,-30.39 -58.06,-60.76 -86.02,-91.14l5699.35 0zm-163.46 163.42c-32.26,30.38 -64.52,61.79 -96.78,91.13l-5178.88 0c-34.41,-29.34 -66.67,-60.75 -98.93,-91.13l5374.59 0zm-182.81 163.41c-36.55,31.42 -73.12,61.79 -111.83,91.13l-4785.3 0c-38.72,-29.34 -75.28,-59.71 -111.83,-91.13l5008.97 0zm-208.61 164.46c-43.01,31.42 -86.03,61.79 -131.2,91.13l-4329.34 0c-45.16,-29.34 -88.19,-59.71 -131.2,-91.13l4591.74 0zm-243.03 163.41c-51.61,31.42 -103.23,61.79 -154.85,91.13l-3793.83 0c-53.76,-29.34 -105.39,-59.71 -157,-91.13l4105.67 0zm-292.49 164.46c-64.52,31.42 -129.05,61.79 -193.56,91.13l-3133.56 0c-64.53,-29.34 -129.05,-59.71 -193.56,-91.13l3520.69 0zm-372.07 163.41c-88.18,33.52 -178.51,63.9 -270.99,91.13l-2234.58 0c-92.48,-27.23 -180.66,-57.61 -270.99,-91.13l2776.55 0zm-5150.92 -2694.16c-6.46,-30.38 -12.91,-60.75 -19.36,-91.13l7508.08 0 0 91.13 -7488.72 0zm-32.26 -163.41c-6.46,-30.38 -10.76,-60.75 -17.21,-91.13l7538.19 0 0 91.13 -7520.98 0zm-27.96 -164.46c-4.31,-30.38 -6.45,-60.75 -10.75,-91.13l7559.69 0 0 91.13 -7548.94 0zm-17.2 -163.41c-4.31,-30.38 -6.46,-60.75 -8.61,-91.13l7574.75 0 0 91.13 -7566.14 0zm-12.91 -164.46c-2.15,-30.38 -2.15,-60.75 -4.31,-91.13l7583.35 0 0 91.13 -7579.05 0z"/>
   </clipPath>
   <clipPath id="id5">
    <path d="M0.59 3761.4l7633.06 0 0 91.13 -7633.06 0c0,-19.9 0,-40.85 0,-60.75 0,-10.47 0,-19.9 0,-30.38zm7630.89 819.14c-6.5,30.38 -13.01,60.75 -19.5,91.13l-7507.35 0c-6.51,-30.38 -15.18,-60.75 -21.68,-91.13l7548.53 0zm-39.01 163.41c-6.51,31.43 -15.17,61.8 -23.84,91.13l-7420.67 0c-8.67,-29.33 -17.34,-59.7 -26.01,-91.13l7470.52 0zm-45.51 164.46c-10.83,30.38 -19.5,60.75 -30.34,91.13l-7316.64 0c-10.83,-30.38 -19.5,-60.75 -30.35,-91.13l7377.32 0zm-56.35 163.41c-10.83,30.38 -23.84,60.75 -34.67,91.13l-7195.27 0c-13.01,-30.38 -23.84,-60.75 -34.67,-91.13l7264.62 0zm-65.02 164.46c-13.01,30.38 -26,60.75 -39.01,91.13l-7056.57 0c-13.01,-30.38 -28.17,-60.75 -39.02,-91.13l7134.59 0zm-73.69 163.41c-13,30.38 -28.17,60.75 -43.34,91.13l-6900.53 0c-15.17,-30.38 -30.34,-60.75 -45.5,-91.13l6989.38 0zm-82.35 164.46c-17.34,30.38 -32.51,60.75 -49.85,90.08l-6722.81 0c-17.33,-29.33 -34.67,-59.7 -49.84,-90.08l6822.5 0zm-93.19 163.41c-19.5,30.38 -39.02,60.75 -56.35,91.13l-6523.42 0c-19.5,-30.38 -36.84,-60.75 -56.35,-91.13l6636.12 0zm-106.2 163.41c-19.5,31.43 -41.18,61.8 -62.85,91.13l-6298.03 0c-21.68,-29.33 -43.34,-59.7 -65.02,-91.13l6425.9 0zm-117.03 164.46c-23.84,30.38 -47.68,60.75 -71.52,91.13l-6048.8 0c-23.84,-30.38 -47.68,-60.75 -69.35,-91.13l6189.67 0zm-132.2 163.41c-26.01,31.43 -52.01,61.8 -78.02,91.13l-5769.22 0c-26,-29.33 -54.18,-59.7 -80.19,-91.13l5927.43 0zm-147.38 164.46c-28.17,30.38 -58.51,60.75 -88.86,91.13l-5452.8 0c-30.34,-30.38 -60.68,-60.75 -91.02,-91.13l5632.68 0zm-164.71 163.41c-32.51,31.43 -67.18,61.8 -101.86,91.13l-5097.37 0c-34.67,-29.33 -69.35,-59.7 -101.86,-91.13l5301.1 0zm-188.55 163.41c-36.84,31.43 -75.85,61.8 -117.03,91.13l-4692.1 0c-39.01,-29.33 -78.01,-59.7 -114.86,-91.13l4923.99 0zm-214.56 164.46c-45.51,31.42 -91.03,61.8 -136.53,91.13l-4221.81 0c-47.68,-29.33 -91.03,-59.71 -136.53,-91.13l4494.87 0zm-253.57 163.41c-52.02,31.43 -106.2,61.8 -162.55,91.13l-3664.82 0c-54.18,-29.33 -108.36,-59.7 -160.37,-91.13l3987.74 0zm-305.59 164.46c-67.18,31.42 -136.53,61.79 -205.89,91.13l-2964.8 0c-69.35,-29.34 -138.7,-59.71 -205.89,-91.13l3376.57 0zm-398.77 163.41c-97.53,34.56 -197.22,64.94 -299.08,91.13l-1983.03 0c-99.69,-26.19 -199.39,-56.57 -299.08,-91.13l2581.2 0zm-5077.87 -2857.56c-6.5,-30.38 -13.01,-60.75 -17.34,-91.13l7581.05 0 0 91.13 -7563.71 0zm-28.17 -164.46c-6.5,-30.38 -8.67,-60.75 -13.01,-91.13l7604.89 0 0 91.13 -7591.88 0zm-21.67 -163.41c-4.34,-30.38 -6.51,-60.75 -8.67,-91.13l7622.22 0 0 91.13 -7613.55 0zm-13.01 -164.46c-2.17,-30.38 -4.34,-60.75 -4.34,-91.13l7630.89 0 0 91.13 -7626.55 0z"/>
   </clipPath>
   <clipPath id="id6">
    <path d="M2337.77 306.56l3040.95 0c66.72,28.28 133.43,58.66 200.15,91.13l-3441.25 0c64.57,-32.47 131.28,-62.85 200.15,-91.13zm3380.99 163.41c53.79,29.34 107.6,59.71 159.25,91.13l-4039.54 0c51.65,-31.42 103.3,-61.79 157.1,-91.13l3723.18 0zm275.46 164.46c45.19,29.33 88.25,59.7 133.44,91.13l-4538.84 0c43.04,-31.43 88.24,-61.8 133.43,-91.13l4271.97 0zm230.28 163.41c38.75,30.38 77.48,60.75 114.07,91.13l-4962.8 0c38.74,-30.38 75.32,-60.75 114.07,-91.13l4734.66 0zm200.15 164.46c34.43,29.33 68.87,59.7 101.15,91.13l-5335.12 0c32.28,-31.43 66.72,-61.8 101.15,-91.13l5132.81 0zm176.47 163.41c30.13,30.38 58.11,60.75 88.24,91.13l-5662.23 0c27.97,-30.38 58.1,-60.75 88.24,-91.13l5485.76 0zm154.96 164.46c27.97,29.33 53.8,59.7 79.63,90.08l-5954.93 0c25.82,-30.38 51.65,-60.75 79.63,-90.08l5795.67 0zm139.89 163.41c23.67,29.33 45.19,60.75 68.86,91.13l-6213.18 0c21.52,-30.38 45.19,-61.8 68.86,-91.13l6075.45 0zm122.67 163.41c21.52,30.38 43.04,60.75 62.42,91.13l-6445.62 0c19.37,-30.38 40.89,-60.75 62.42,-91.13l6320.79 0zm109.76 164.46c19.36,29.33 38.74,59.7 55.95,91.13l-6654.36 0c19.36,-31.43 38.74,-61.8 55.95,-91.13l6542.47 0zm98.99 163.41c17.22,30.38 34.44,60.75 49.5,91.13l-6839.44 0c17.21,-30.38 34.43,-60.75 51.65,-91.13l6738.29 0zm88.24 164.46c15.07,29.33 30.14,59.7 45.19,90.08l-7005.15 0c15.06,-30.38 30.13,-60.75 45.19,-90.08l6914.77 0zm77.48 163.41c12.91,30.38 25.82,60.75 38.74,91.13l-7149.36 0c12.92,-30.38 25.83,-60.75 40.89,-91.13l7069.73 0zm68.86 163.41c10.76,30.38 23.68,60.75 34.43,91.13l-7276.33 0c10.76,-30.38 21.53,-60.75 34.44,-91.13l7207.46 0zm60.26 164.46c8.61,30.38 19.36,60.75 27.97,91.13l-7383.93 0c8.6,-30.38 17.21,-60.75 27.97,-91.13l7327.98 0zm49.5 163.41c6.46,19.9 10.76,39.81 17.21,59.7l0 31.43 -7470.02 0c8.61,-30.38 15.06,-60.75 23.67,-91.13l7429.14 0zm-7564.72 1238.13c-2.15,-30.38 -4.31,-60.75 -4.31,-91.13l7586.24 0 0 91.13 -7581.93 0zm-6.46 -163.41c0,-15.72 0,-31.43 0,-47.14 0,-14.67 0,-29.34 0,-43.99l7588.39 0 0 91.13 -7588.39 0zm2.15 -164.46c0,-30.38 2.15,-60.75 2.15,-91.13l7584.08 0 0 91.13 -7586.24 0zm8.61 -163.41c2.15,-30.38 4.31,-60.75 6.46,-91.13l7571.17 0 0 91.13 -7577.62 0zm15.07 -164.46c4.31,-30.38 8.61,-60.75 12.91,-91.13l7549.65 0 0 91.13 -7562.56 0zm23.67 -163.41c4.31,-30.38 10.76,-60.75 15.07,-91.13l7523.82 0 0 91.13 -7538.89 0zm30.14 -163.41c6.45,-31.43 12.91,-61.8 21.52,-91.13l7487.24 0 0 91.13 -7508.75 0z"/>
   </clipPath>
   <clipPath id="id7">
    <path d="M2370.39 292.93l2975.14 0c70.59,28.28 136.89,58.66 205.33,91.13l-3385.81 0c68.45,-32.47 134.75,-62.85 205.34,-91.13zm3323.77 163.41c55.62,29.33 109.08,59.7 162.56,91.13l-3997.51 0c53.46,-31.43 106.94,-61.8 162.55,-91.13l3672.41 0zm278.06 164.46c47.06,29.33 91.97,59.7 134.75,91.13l-4498.02 0c42.78,-31.43 87.7,-61.8 134.75,-91.13l4228.51 0zm235.27 163.41c38.5,30.38 77,59.7 115.5,91.13l-4930.06 0c38.5,-31.43 77,-60.75 115.5,-91.13l4699.06 0zm201.05 164.45c34.22,29.34 68.44,59.71 102.66,91.14l-5306.49 0c34.22,-31.43 68.44,-61.8 102.66,-91.14l5101.17 0zm179.67 163.42c29.94,30.38 59.88,60.75 87.69,91.13l-5635.87 0c27.8,-30.38 57.74,-60.75 87.69,-91.13l5460.5 0zm156.13 163.41c25.67,30.38 53.47,60.75 79.15,91.13l-5931.05 0c25.67,-30.38 53.47,-60.75 79.14,-91.13l5772.77 0zm139.03 164.45c25.67,30.38 49.2,59.71 72.73,91.14l-6194.13 0c21.39,-31.43 44.91,-60.76 70.59,-91.14l6050.81 0zm126.19 163.42c21.39,30.38 42.78,60.75 62.02,91.13l-6427.26 0c19.25,-30.38 40.64,-60.75 62.03,-91.13l6303.2 0zm111.22 164.45c19.24,29.34 38.5,59.71 55.61,91.13l-6636.86 0c17.11,-31.42 36.35,-61.79 55.61,-91.13l6525.65 0zm98.39 163.41c17.11,30.38 34.22,60.75 51.33,91.13l-6825.09 0c17.11,-30.38 34.22,-60.75 51.33,-91.13l6722.42 0zm89.83 164.46c14.97,29.33 29.95,59.71 44.91,90.09l-6991.91 0c14.97,-30.38 29.94,-60.76 44.91,-90.09l6902.08 0zm79.14 163.41c12.84,30.38 25.67,60.75 38.51,91.13l-7137.36 0c12.84,-30.38 25.67,-60.75 38.51,-91.13l7060.35 0zm68.44 163.41c12.84,30.38 23.53,60.75 34.22,91.13l-7265.68 0c10.69,-30.38 21.39,-60.75 34.22,-91.13l7197.24 0zm59.89 164.46c8.55,25.14 17.11,50.28 25.66,76.46l0 14.67 -7372.63 0c8.56,-30.38 19.25,-60.75 29.95,-91.13l7317.02 0zm-7511.66 1401.54c-2.14,-30.38 -2.14,-60.75 -4.28,-91.13l7541.59 0 0 91.13 -7537.32 0zm-4.28 -163.41c0,-11.52 0,-22 0,-33.52 0,-18.85 0,-38.76 0,-57.61l7541.59 0 0 91.13 -7541.59 0zm2.13 -164.46c0,-30.38 2.14,-60.75 4.29,-91.13l7535.17 0 0 91.13 -7539.46 0zm8.56 -163.41c2.13,-30.38 6.42,-60.75 8.55,-91.13l7522.35 0 0 91.13 -7530.9 0zm17.11 -164.46c4.28,-30.38 8.55,-60.75 12.84,-91.13l7500.95 0 0 91.13 -7513.79 0zm23.53 -163.41c6.42,-30.38 10.69,-60.75 17.11,-91.13l7473.15 0 0 91.13 -7490.26 0zm32.08 -163.41c6.42,-31.43 12.84,-61.8 19.25,-91.13l7438.93 0 0 91.13 -7458.18 0zm38.5 -164.46c8.56,-30.38 17.11,-60.75 25.67,-91.13l7394.01 0 0 91.13 -7419.68 0z"/>
   </clipPath>
   <clipPath id="id8">
    <path d="M2287.46 328.2l3142.58 0c64.66,28.28 129.33,58.66 191.83,91.13l-3528.41 0c64.67,-32.47 127.17,-62.85 193.99,-91.13zm3472.36 163.41c51.73,29.34 103.45,59.71 153.03,91.13l-4110.36 0c51.72,-31.42 101.3,-61.79 155.19,-91.13l3802.14 0zm267.27 164.46c43.1,29.33 86.21,59.7 129.32,91.13l-4597.48 0c43.1,-31.43 86.21,-61.8 129.33,-91.13l4338.84 0zm226.31 163.41c38.8,30.38 75.44,60.75 112.09,91.13l-5015.63 0c36.63,-30.38 75.43,-60.75 112.08,-91.13l4791.47 0zm196.15 164.46c34.48,29.33 66.81,59.7 99.14,91.13l-5379.89 0c32.33,-31.43 64.66,-61.8 97,-91.13l5183.76 0zm172.43 163.41c30.18,30.38 58.2,60.75 88.38,91.13l-5703.21 0c28.02,-30.38 56.04,-60.75 86.21,-91.13l5528.62 0zm153.03 163.41c28.02,30.38 51.73,60.75 77.59,91.13l-5989.88 0c25.87,-30.38 51.73,-60.75 77.59,-91.13l5834.69 0zm135.79 164.46c23.71,30.38 47.42,60.75 71.13,91.13l-6246.37 0c21.55,-30.38 45.26,-60.75 68.97,-91.13l6106.27 0zm122.86 163.41c21.55,30.38 40.95,60.75 62.51,91.13l-6477 0c21.55,-30.38 40.95,-60.75 62.51,-91.13l6351.99 0zm109.92 164.46c17.24,29.33 36.64,59.7 53.89,91.13l-6679.61 0c17.25,-31.43 36.64,-61.8 56.05,-91.13l6569.68 0zm97 163.41c17.24,30.38 32.33,60.75 49.57,91.13l-6862.81 0c15.09,-30.38 32.33,-60.75 49.57,-91.13l6763.67 0zm86.21 164.46c15.09,29.33 30.18,59.7 43.1,90.08l-7024.47 0c15.09,-30.38 28.02,-60.75 43.1,-90.08l6938.26 0zm75.44 163.41c15.09,30.38 25.86,60.75 38.8,91.13l-7166.73 0c12.93,-30.38 25.86,-60.75 38.8,-91.13l7089.14 0zm68.97 163.41c10.77,30.38 21.55,60.75 32.33,91.13l-7291.75 0c10.78,-30.38 21.56,-60.75 34.49,-91.13l7224.93 0zm58.19 164.46c8.62,30.38 19.4,60.75 28.02,91.13l-7399.52 0c10.78,-30.38 19.4,-60.75 30.18,-91.13l7341.32 0zm49.58 163.41c4.31,16.76 8.62,33.52 12.93,50.28l0 40.85 -7479.26 0c8.62,-30.38 17.24,-60.75 25.86,-91.13l7440.47 0zm-7571.95 1238.13c-2.15,-30.38 -2.15,-60.75 -4.32,-91.13l7589.19 0 0 91.13 -7584.87 0zm-6.47 -163.41c0,-23.05 0,-46.1 0,-68.09 0,-8.38 0,-15.71 0,-23.04l7591.34 0 0 91.13 -7591.34 0zm0 -164.46c2.15,-30.38 2.15,-60.75 4.32,-91.13l7587.03 0 0 91.13 -7591.34 0zm8.62 -163.41c2.15,-30.38 4.32,-60.75 6.47,-91.13l7576.25 0 0 91.13 -7582.72 0zm15.09 -164.46c4.32,-30.38 6.47,-60.75 10.77,-91.13l7556.86 0 0 91.13 -7567.63 0zm21.56 -163.41c4.31,-30.38 10.77,-60.75 15.09,-91.13l7530.99 0 0 91.13 -7546.08 0zm30.18 -163.41c6.47,-31.43 12.93,-61.8 19.39,-91.13l7496.51 0 0 91.13 -7515.9 0z"/>
   </clipPath>
   <clipPath id="id9">
    <path d="M9.24 4069.03l7621.49 0 0 90.86 -7612.83 0c-2.16,-29.96 -4.33,-59.9 -8.66,-90.86zm7621.49 518.19c-4.33,20.97 -8.65,42.93 -15.15,63.9l-7515.45 0c-8.66,-29.95 -15.15,-59.9 -21.64,-90.85l7552.23 0 0 26.95zm-32.46 136.79c-8.65,30.96 -15.15,60.9 -23.8,91.86l-7431.06 0c-8.66,-30.96 -17.31,-60.9 -25.97,-91.86l7480.83 0zm-45.43 163.75c-10.82,30.95 -19.48,60.9 -30.3,91.85l-7329.36 0c-10.82,-30.95 -19.47,-60.9 -28.13,-91.85l7387.79 0zm-56.27 164.74c-10.82,29.96 -21.64,60.9 -32.46,90.86l-7212.5 0c-10.81,-29.96 -21.64,-60.9 -32.46,-90.86l7277.42 0zm-62.76 163.75c-12.99,29.95 -25.97,60.9 -38.95,90.85l-7074.01 0c-12.99,-29.95 -25.97,-60.9 -38.96,-90.85l7151.91 0zm-71.41 163.74c-15.15,29.96 -30.3,60.9 -45.44,90.86l-6918.2 0c-15.15,-29.96 -30.3,-60.9 -45.44,-90.86l7009.09 0zm-82.24 163.75c-15.14,30.95 -32.46,60.9 -49.77,90.85l-6745.08 0c-17.31,-29.95 -32.46,-59.9 -49.77,-90.85l6844.62 0zm-93.04 163.74c-17.31,30.96 -36.79,60.9 -56.27,90.86l-6546 0c-19.47,-29.96 -38.95,-59.9 -56.26,-90.86l6658.53 0zm-103.88 163.75c-19.47,30.95 -41.11,60.9 -62.76,90.86l-6325.27 0c-21.64,-29.96 -43.28,-59.91 -62.76,-90.86l6450.79 0zm-114.69 163.74c-23.81,30.96 -45.44,60.9 -69.24,90.86l-6080.75 0c-23.81,-29.96 -47.61,-59.9 -71.42,-90.86l6221.41 0zm-129.84 163.75c-25.97,30.95 -51.93,60.9 -77.9,90.86l-5805.93 0c-25.96,-29.96 -51.93,-59.91 -77.89,-90.86l5961.72 0zm-144.98 163.74c-30.3,30.96 -58.43,61.9 -88.73,91.86l-5494.31 0c-30.3,-29.96 -58.42,-60.9 -88.72,-91.86l5671.75 0zm-164.47 163.75c-32.46,30.95 -64.92,61.9 -99.54,91.85l-5143.75 0c-34.62,-29.95 -67.08,-60.9 -99.54,-91.85l5342.83 0zm-183.93 164.74c-38.96,30.96 -75.74,60.9 -114.69,90.86l-4745.58 0c-38.96,-29.96 -75.74,-59.9 -114.7,-90.86l4974.96 0zm-212.07 163.75c-43.28,30.95 -88.73,60.9 -132.01,90.85l-4286.81 0c-43.28,-29.95 -88.73,-59.9 -132,-90.85l4550.82 0zm-248.86 163.74c-51.93,30.96 -103.87,61.9 -157.97,90.86l-3737.17 0c-54.1,-28.95 -106.03,-59.9 -157.97,-90.86l4053.11 0zm-296.46 163.75c-64.93,31.95 -132.01,61.9 -199.09,90.86l-3062.02 0c-67.08,-28.95 -132,-58.91 -196.92,-90.86l3458.02 0zm-383.02 163.74c-93.05,33.95 -186.1,63.91 -281.32,90.86l-2131.51 0c-95.2,-26.95 -188.26,-56.91 -281.31,-90.86l2694.14 0zm-586.44 163.75c-246.7,47.93 -499.87,73.88 -759.56,73.88 -261.84,0 -515.02,-25.95 -761.71,-73.88l1521.27 0zm-4552.98 -3022.26c-6.5,-29.96 -10.82,-59.9 -17.31,-90.86l7582.53 0 0 90.86 -7565.22 0zm-28.13 -163.75c-4.33,-29.95 -8.66,-59.9 -10.82,-90.85l7604.18 0 0 90.85 -7593.35 0z"/>
   </clipPath>
   <clipPath id="id10">
    <path d="M9.16 4055.38l7574.75 0 0 91.21 -7566.14 0c-4.31,-30.07 -6.46,-61.14 -8.61,-91.21zm7574.75 722.66c-2.14,8.01 -4.3,16.03 -6.45,24.05l-7439.26 0c-8.6,-30.07 -17.21,-61.14 -23.66,-91.21l7469.36 0 0 67.16zm-27.95 96.22c-8.6,31.07 -19.35,61.14 -27.96,91.21l-7340.32 0c-8.61,-30.07 -19.36,-60.14 -27.96,-91.21l7396.25 0zm-53.76 164.38c-10.75,30.07 -21.51,61.13 -34.41,91.21l-7219.89 0c-12.91,-30.08 -23.66,-61.14 -34.41,-91.21l7288.72 0zm-62.38 163.38c-12.91,31.07 -25.81,61.13 -38.71,91.2l-7086.55 0c-12.91,-30.07 -25.8,-60.13 -38.71,-91.2l7163.97 0zm-70.98 164.37c-15.05,30.08 -30.11,60.14 -45.16,91.21l-6931.7 0c-15.05,-31.07 -30.11,-61.13 -45.16,-91.21l7022.02 0zm-81.72 163.38c-15.06,31.08 -32.27,61.14 -49.47,91.21l-6759.64 0c-17.21,-30.07 -34.41,-60.13 -49.47,-91.21l6858.58 0zm-90.33 164.38c-19.36,30.07 -36.56,60.14 -55.92,90.21l-6566.08 0c-17.2,-30.07 -36.55,-60.14 -55.92,-90.21l6677.92 0zm-103.23 163.38c-21.51,31.07 -40.87,61.13 -62.38,91.21l-6346.7 0c-21.51,-30.08 -40.87,-60.14 -62.38,-91.21l6471.45 0zm-116.14 164.38c-21.51,30.07 -45.16,60.13 -68.82,90.2l-6101.52 0c-23.66,-30.07 -47.32,-60.13 -68.82,-90.2l6239.17 0zm-126.89 163.37c-25.81,31.08 -51.61,61.14 -77.42,91.21l-5830.54 0c-25.81,-30.07 -51.62,-60.13 -77.42,-91.21l5985.38 0zm-144.09 164.38c-27.96,30.07 -58.07,61.14 -88.18,90.21l-5520.84 0c-30.11,-29.07 -58.07,-60.14 -88.18,-90.21l5697.2 0zm-161.3 163.38c-32.26,31.07 -66.67,61.14 -98.93,91.21l-5176.73 0c-32.26,-30.07 -64.52,-60.14 -96.78,-91.21l5372.43 0zm-184.96 163.38c-36.55,31.07 -73.12,62.13 -111.83,91.21l-4780.99 0c-38.72,-29.08 -75.28,-60.14 -111.84,-91.21l5004.67 0zm-208.61 164.38c-43.01,31.07 -86.03,61.13 -131.2,91.2l-4325.05 0c-45.16,-30.07 -88.18,-60.13 -131.19,-91.2l4587.44 0zm-243.03 163.37c-51.61,32.08 -103.23,62.14 -157,91.21l-3787.37 0c-53.77,-29.07 -105.39,-59.13 -154.86,-91.21l4099.23 0zm-294.65 164.38c-62.37,32.08 -126.88,62.14 -193.56,91.21l-3124.96 0c-66.67,-29.07 -131.19,-59.13 -193.56,-91.21l3512.09 0zm-372.07 163.38c-90.33,34.08 -180.66,64.15 -270.99,91.21l-2225.97 0c-90.33,-27.06 -180.66,-57.13 -270.99,-91.21l2767.94 0zm-557.03 164.38c-266.68,57.13 -544.13,87.2 -825.87,87.2 -283.89,0 -561.33,-30.07 -828.02,-87.2l1653.89 0zm-4587.44 -2858.56c-8.6,-30.07 -15.05,-60.13 -21.51,-91.21l7508.08 0 0 91.21 -7486.58 0zm-34.4 -163.37c-6.46,-30.08 -10.76,-61.14 -17.21,-91.21l7538.19 0 0 91.21 -7520.98 0zm-27.96 -164.38c-2.15,-30.08 -6.45,-60.14 -10.75,-91.21l7559.69 0 0 91.21 -7548.94 0z"/>
   </clipPath>
   <clipPath id="id11">
    <path d="M11.43 4090.65l7622.22 0 0 91.29 -7613.55 0c-2.17,-30.76 -6.51,-60.53 -8.67,-91.29zm7620.05 491.19c-6.5,30.76 -13.01,61.52 -19.5,91.29l-7507.35 0c-6.51,-29.77 -13.01,-60.53 -19.51,-91.29l7546.37 0zm-39.01 163.73c-8.67,30.76 -15.17,61.52 -26.01,91.29l-7418.49 0c-8.67,-29.77 -17.34,-60.53 -23.84,-91.29l7468.34 0zm-47.68 164.72c-8.67,29.78 -19.51,60.53 -28.17,90.3l-7316.64 0c-10.83,-29.77 -19.5,-60.52 -30.35,-90.3l7375.16 0zm-54.19 163.74c-13.01,29.77 -23.84,60.52 -34.67,90.3l-7195.27 0c-10.83,-29.78 -23.84,-60.53 -34.67,-90.3l7264.62 0zm-65.02 163.73c-13.01,30.76 -26,60.53 -39.01,91.29l-7056.57 0c-13.01,-30.76 -26.01,-60.53 -39.02,-91.29l7134.59 0zm-73.69 163.73c-15.17,30.76 -30.34,60.53 -45.5,91.29l-6898.37 0c-15.17,-30.76 -30.34,-60.53 -43.34,-91.29l6987.21 0zm-82.35 163.73c-17.34,30.77 -34.68,60.53 -52.01,91.29l-6718.48 0c-17.34,-30.76 -34.67,-60.52 -52.01,-91.29l6822.5 0zm-95.37 163.74c-17.33,30.76 -36.84,61.51 -56.35,91.29l-6519.09 0c-19.5,-29.78 -39.01,-60.53 -58.51,-91.29l6633.95 0zm-104.03 163.73c-21.68,30.76 -43.34,61.52 -65.02,91.29l-6295.86 0c-21.68,-29.77 -43.34,-60.53 -62.86,-91.29l6423.73 0zm-117.03 163.73c-23.84,30.76 -47.68,61.52 -71.52,91.29l-6046.63 0c-23.84,-29.77 -47.68,-60.53 -71.53,-91.29l6189.67 0zm-132.2 163.73c-26.01,30.77 -54.19,61.52 -80.19,91.29l-5764.89 0c-28.17,-29.77 -54.19,-60.52 -80.19,-91.29l5925.26 0zm-147.38 164.73c-30.34,30.76 -60.68,60.52 -91.02,90.3l-5450.64 0c-30.34,-29.78 -58.51,-59.54 -88.86,-90.3l5630.52 0zm-166.87 163.73c-32.51,30.76 -67.19,60.53 -101.86,90.3l-5093.04 0c-34.68,-29.77 -69.35,-59.54 -101.86,-90.3l5296.76 0zm-188.56 163.73c-36.84,30.77 -75.85,61.52 -114.86,91.29l-4689.93 0c-39.02,-29.77 -78.02,-60.52 -117.03,-91.29l4921.82 0zm-214.56 163.73c-45.5,30.77 -91.02,61.52 -136.53,91.29l-4217.47 0c-45.5,-29.77 -91.02,-60.52 -136.53,-91.29l4490.54 0zm-253.57 163.74c-54.18,31.75 -108.36,61.51 -162.55,91.29l-3658.32 0c-56.35,-29.78 -110.53,-59.54 -162.55,-91.29l3983.41 0zm-307.75 163.73c-67.18,32.74 -136.53,62.52 -205.89,91.29l-2958.29 0c-69.35,-28.77 -136.53,-58.55 -205.89,-91.29l3370.07 0zm-398.77 163.73c-97.53,34.73 -197.22,64.5 -301.24,91.29l-1970.04 0c-101.85,-26.79 -201.55,-56.56 -299.08,-91.29l2570.36 0zm-645.84 163.73c-208.06,34.73 -422.61,52.59 -639.34,52.59 -218.89,0 -431.28,-17.86 -639.33,-52.59l1278.67 0zm-4427.69 -3021.56c-6.5,-29.78 -13.01,-60.53 -17.34,-91.29l7581.05 0 0 91.29 -7563.71 0zm-28.17 -163.74c-4.34,-30.76 -8.67,-60.52 -13.01,-91.29l7604.89 0 0 91.29 -7591.88 0z"/>
   </clipPath>
  <linearGradient id="id12" gradientUnits="userSpaceOnUse" x1="6548.68" y1="3545.34" x2="4647.71" y2="455.51">
   <stop offset="0" style="stop-opacity:1; stop-color:#06C0F3"/>
   <stop offset="1" style="stop-opacity:1; stop-color:#F072AB"/>
  </linearGradient>
  <linearGradient id="id13" gradientUnits="userSpaceOnUse" x1="7751.91" y1="7055.84" x2="3532.25" y2="633.88">
   <stop offset="0" style="stop-opacity:1; stop-color:#A9D046"/>
   <stop offset="0.34902" style="stop-opacity:1; stop-color:#439BD4"/>
   <stop offset="1" style="stop-opacity:1; stop-color:#ED2790"/>
  </linearGradient>
  <linearGradient id="id14" gradientUnits="userSpaceOnUse" x1="24886.63" y1="1859.08" x2="7991.47" y2="2219.57">
   <stop offset="0" style="stop-opacity:1; stop-color:#6A6FB3"/>
   <stop offset="0.509804" style="stop-opacity:1; stop-color:#539AA9"/>
   <stop offset="1" style="stop-opacity:1; stop-color:#06C0F3"/>
  </linearGradient>
 </defs>
 <g id="Camada_x0020_1">
  <metadata id="CorelCorpID_0Corel-Layer"/>
  <path class="fil0" d="M3857.98 0.42c2130.7,0 3858,1697.54 3858,3791.54 0,2094.01 -1727.29,3791.55 -3858,3791.55 -2130.69,0 -3857.98,-1697.54 -3857.98,-3791.55 0,-2094 1727.28,-3791.54 3857.98,-3791.54z"/>
  <g style="clip-path:url(#id0)">
   <image x="-3.74" y="-2.48" width="7592.69" height="3675.36" xlink:href="Multicor - logo corel (2)_Images/Multicor - logo corel (2)_ImgID1.png"/>
  </g>
  <g style="clip-path:url(#id1)">
   <image x="-3.74" y="-2.47" width="7545.88" height="3661.7" xlink:href="Multicor - logo corel (2)_Images/Multicor - logo corel (2)_ImgID2.png"/>
  </g>
  <g style="clip-path:url(#id2)">
   <image x="-3.74" y="-1.05" width="7604.28" height="3695.55" xlink:href="Multicor - logo corel (2)_Images/Multicor - logo corel (2)_ImgID3.png"/>
  </g>
  <g style="clip-path:url(#id3)">
   <image x="-3.74" y="3739.78" width="7634.47" height="3695.53" xlink:href="Multicor - logo corel (2)_Images/Multicor - logo corel (2)_ImgID4.png"/>
  </g>
  <g style="clip-path:url(#id4)">
   <image x="-3.74" y="3726.14" width="7587.66" height="3695.56" xlink:href="Multicor - logo corel (2)_Images/Multicor - logo corel (2)_ImgID5.png"/>
  </g>
  <g style="clip-path:url(#id5)">
   <image x="-3.74" y="3761.4" width="7646.06" height="3695.55" xlink:href="Multicor - logo corel (2)_Images/Multicor - logo corel (2)_ImgID6.png"/>
  </g>
  <g style="clip-path:url(#id6)">
   <image x="-3.74" y="306.56" width="7592.69" height="3695.55" xlink:href="Multicor - logo corel (2)_Images/Multicor - logo corel (2)_ImgID7.png"/>
  </g>
  <g style="clip-path:url(#id7)">
   <image x="-3.74" y="292.93" width="7545.88" height="3695.54" xlink:href="Multicor - logo corel (2)_Images/Multicor - logo corel (2)_ImgID8.png"/>
  </g>
  <g style="clip-path:url(#id8)">
   <image x="-3.74" y="328.2" width="7604.28" height="3695.55" xlink:href="Multicor - logo corel (2)_Images/Multicor - logo corel (2)_ImgID9.png"/>
  </g>
  <g style="clip-path:url(#id9)">
   <image x="-3.74" y="4069.03" width="7634.47" height="3522.47" xlink:href="Multicor - logo corel (2)_Images/Multicor - logo corel (2)_ImgID10.png"/>
  </g>
  <g style="clip-path:url(#id10)">
   <image x="-3.74" y="4055.38" width="7587.66" height="3536.11" xlink:href="Multicor - logo corel (2)_Images/Multicor - logo corel (2)_ImgID11.png"/>
  </g>
  <g style="clip-path:url(#id11)">
   <image x="-3.74" y="4090.65" width="7646.06" height="3500.85" xlink:href="Multicor - logo corel (2)_Images/Multicor - logo corel (2)_ImgID12.png"/>
  </g>
  <path class="fil1" d="M7661.71 2997.37l-3585.74 -2975.09c1717.97,73.24 3225.12,1280.05 3585.74,2975.09zm62.48 390.58c10.25,94.9 17.08,190.88 20.26,287.84 60.43,1837.27 -1183.33,3369.38 -2847.55,3612.37l549.73 -758.31c-983.13,-792.76 -1966.16,-1585.62 -2949.23,-2378.37 1152.93,558.46 2305.84,1116.88 3458.8,1675.4 242.7,-334.85 485.43,-669.69 728.11,-1004.58 -789.71,-1059.5 -1579.46,-2118.9 -2369.16,-3178.38 964.31,818.71 1928.56,1637.48 2892.8,2456.16l516.22 -712.14zm-5588.69 -368.54l1935 -224.33 1275.47 1726.69 -3210.46 -1502.36z"/>
  <path class="fil0" d="M2742.48 3303.46l1708.62 6.89 46.57 63.04 -1619.72 -6.54 -135.46 -63.39zm2818.17 11.37l725.91 2.92 74.38 63.16 -753.3 -3.04 -46.99 -63.04zm2029.6 -376.74l-76.1 -63.15 119.21 0.48c5.22,20.89 10.2,41.87 15.1,62.9l-58.21 -0.23zm-180.77 -149.99l-76.12 -63.16 259.47 1.05c6.16,20.89 12.11,41.87 17.92,62.92l-201.27 -0.81zm-180.77 -149.98l-76.11 -63.15 392.79 1.58c7.14,20.89 14.07,41.86 20.85,62.93l-337.53 -1.36zm-180.76 -149.98l-76.13 -63.16 518.9 2.09c8.17,20.89 16.13,41.87 23.93,62.96l-466.69 -1.89zm-180.79 -150l-76.1 -63.14 637.38 2.57c9.25,20.88 18.3,41.86 27.18,62.95l-588.46 -2.38zm-180.76 -149.97l-76.13 -63.17 747.87 3.02c10.4,20.89 20.63,41.86 30.65,62.98l-702.39 -2.83zm-180.77 -149.98l-76.14 -63.18 849.88 3.42c11.62,20.89 23.1,41.88 34.33,63.02l-808.07 -3.26zm-180.79 -150l-76.1 -63.15 942.82 3.81c12.94,20.86 25.66,41.85 38.19,62.99l-904.9 -3.65zm-180.76 -149.98l-76.13 -63.16 1025.54 4.13c14.37,20.85 28.51,41.86 42.47,63.03l-991.88 -4zm-180.79 -150l-76.1 -63.14 1097.56 4.43c15.94,20.84 31.66,41.85 47.17,63.03l-1068.63 -4.32zm-180.76 -149.97l-76.13 -63.17 1157.7 4.68c17.7,20.84 35.19,41.84 52.45,63.07l-1134.02 -4.58zm-180.78 -149.99l-76.11 -63.15 1204.16 4.86c19.66,20.79 39.04,41.84 58.23,63.08l-1186.28 -4.79zm-180.77 -149.98l-76.11 -63.16 1235.05 4.99c21.97,20.79 43.69,41.81 65.16,63.12l-1224.1 -4.95zm-180.79 -150l-76.1 -63.14 1247.75 5.04c24.69,20.76 49.17,41.76 73.33,63.13l-1244.97 -5.03zm-180.79 -150l-76.1 -63.14 1238.2 5c28.02,20.69 55.8,41.73 83.25,63.18l-1245.35 -5.04zm-180.74 -149.95l-76.15 -63.19 1200.78 4.85c32.25,20.57 64.07,41.77 95.67,63.27l-1220.29 -4.93zm-180.79 -150l-76.1 -63.15 1124.61 4.55c38.27,20.47 76.17,41.57 113.69,63.29l-1162.19 -4.69zm-180.76 -149.98l-76.13 -63.17 990.93 4c47.58,20.22 94.69,41.37 141.34,63.43l-1056.13 -4.27zm-180.79 -150l-76.1 -63.15 751.69 3.04c65.86,19.46 131.02,40.79 195.52,63.62l-871.1 -3.51zm-180.75 -149.97l-76.14 -63.17 55.38 0.22c175.04,10.12 347.75,32 517.17,64.95l-496.41 -2zm3576.64 3382.52c1.8,20.91 3.43,41.86 4.91,62.86l-118.29 -0.48 45.41 -62.66 67.97 0.28zm9.97 149.32c0.88,18.49 1.62,37.02 2.23,55.6l0.16 7.23 -233.63 -0.94 45.4 -62.64 185.83 0.75zm4.11 149.26c0.16,20.99 0.16,41.94 -0.01,62.85l-343.23 -1.38 45.42 -62.67 297.82 1.2zm-1.6 149.26c-0.64,21 -1.49,41.92 -2.47,62.83l-447.05 -1.8 45.41 -62.66 404.11 1.63zm-7.42 149.2c-1.45,21 -3.05,41.96 -4.85,62.86l-1568.32 -6.33 -47.01 -63.07 1050.23 4.24 40.6 34.48 24.8 -34.21 504.55 2.03zm-13.23 149.22c-2.28,20.99 -4.64,41.94 -7.26,62.81l-1441.11 -5.82 -46.98 -63.03 1495.34 6.04zm-19.14 149.17c-3.12,20.99 -6.3,41.96 -9.77,62.82l-1307.86 -5.28 -47 -63.05 1364.63 5.51zm-25.24 149.17c-4.01,21.01 -8.25,41.92 -12.61,62.79l-1168.2 -4.73 -46.98 -63.02 1227.78 4.96zm-31.64 149.1c-4.93,21.03 -10.12,41.94 -15.39,62.82l-1022.18 -4.13 -47 -63.06 1084.57 4.38zm-38.23 149.11c-5.85,21.03 -11.94,41.93 -18.15,62.79l-943.86 -3.8 36.49 -50.36 -9.23 -12.39 934.75 3.77zm-44.94 149.09c-6.82,21.02 -13.87,41.92 -21.06,62.76l-1003.86 -4.05 45.41 -62.66 979.5 3.95zm-51.98 149.05c-7.85,21.03 -15.92,41.93 -24.14,62.75l-1056.67 -4.27 45.42 -62.66 1035.38 4.18zm-59.42 149.03c-8.94,21.03 -18.07,41.92 -27.38,62.72l-1101.86 -4.45 45.41 -62.65 1083.83 4.38zm-67.26 148.96c-10.09,21.05 -20.42,41.95 -30.9,62.75l-1138.95 -4.61 45.43 -62.68 1124.42 4.54zm-75.65 148.96c-11.33,21.05 -22.92,41.94 -34.65,62.71l-1167.41 -4.72 45.41 -62.66 1156.65 4.67zm-84.95 148.91c-12.69,21.05 -25.53,41.96 -38.63,62.7l-1186.36 -4.79 45.42 -62.68 1179.56 4.77zm-94.97 148.88c-14.18,21.07 -28.56,41.96 -43.17,62.67l-2410.14 -9.73 -78.3 -63.16 2531.62 10.22zm-105.85 148.83c-15.86,21.09 -31.92,41.98 -48.22,62.66l-2113.21 -8.53 -78.32 -63.17 2239.75 9.04zm-118.41 148.77c-17.78,21.12 -35.82,41.98 -54.08,62.64l-1802.92 -7.27 -78.35 -63.19 1935.35 7.82zm-132.72 148.73c-19.98,21.12 -40.15,42.03 -60.64,62.6l-1477.62 -5.97 -78.31 -63.16 1616.58 6.53zm-149.88 148.65c-22.71,21.17 -45.63,42.07 -68.88,62.58l-1133.46 -4.58 -78.34 -63.18 1280.69 5.18zm-170.57 148.58c-26.08,21.21 -52.38,42.12 -79.09,62.52l-1020.77 -4.12 45.41 -62.65 1054.44 4.26zm-197 148.45c-30.72,21.38 -61.81,42.18 -93.25,62.49l-917.5 -3.7 45.43 -62.68 965.31 3.89zm-233.91 148.32c-37.34,21.52 -75.06,42.37 -113.27,62.39l-771.45 -3.11 45.42 -62.67 839.29 3.39zm-290.04 148.1c-49.02,21.95 -98.63,42.74 -148.87,62.24l-553.71 -2.24 45.42 -62.65 657.15 2.65zm-1240.92 -1285.49l-78.34 -63.18 1284.38 5.19 130.86 63.39 -1336.89 -5.4zm-186.02 -150.01l-78.31 -63.16 1159.68 4.68 130.83 63.38 -1212.19 -4.9zm-185.98 -149.99l-78.34 -63.18 1034.98 4.18 130.85 63.39 -1087.48 -4.39zm-186.02 -150.02l-78.3 -63.15 910.28 3.67 130.8 63.36 -962.77 -3.88zm-186.01 -150.01l-78.31 -63.16 785.55 3.17 130.83 63.37 -838.06 -3.38zm-186.01 -150.02l-78.3 -63.15 660.82 2.66 130.82 63.37 -713.33 -2.88zm-185.97 -149.98l-78.35 -63.19 536.08 2.16 130.88 63.4 -588.6 -2.37zm-186.01 -150.01l-78.34 -63.19 411.36 1.66 130.87 63.4 -463.88 -1.87zm-186.03 -150.02l-78.3 -63.16 286.65 1.16 130.81 63.36 -339.15 -1.36zm-186 -150l-78.33 -63.18 161.93 0.66 130.85 63.38 -214.44 -0.86zm-186.03 -150.02l-78.3 -63.16 37.21 0.15 130.8 63.37 -89.71 -0.36zm3421.31 -284.68l-46.98 -63.03 985.2 3.97 74.36 63.14 -1012.58 -4.08zm-111.58 -149.71l-47 -63.04 920.15 3.71 74.38 63.15 -947.53 -3.82zm-111.61 -149.72l-46.97 -63.02 855.11 3.45 74.35 63.13 -882.5 -3.56zm-111.58 -149.71l-47 -63.03 790.08 3.18 74.36 63.14 -817.45 -3.29zm-221.71 -297.43l-46.99 -63.03 660.88 2.67 74.36 63.13 -688.25 -2.77zm-111.59 -149.7l-47 -63.05 595.84 2.4 74.38 63.16 -623.22 -2.51zm-111.6 -149.72l-46.98 -63.03 530.8 2.14 74.37 63.14 -558.19 -2.25zm-111.59 -149.7l-46.99 -63.05 465.77 1.88 74.38 63.16 -493.17 -1.99zm-111.58 -149.71l-46.99 -63.03 400.74 1.61 74.36 63.15 -428.12 -1.73zm-111.59 -149.7l-46.99 -63.05 335.69 1.36 74.4 63.16 -363.1 -1.47zm-111.59 -149.72l-46.98 -63.02 270.66 1.09 74.36 63.14 -298.04 -1.21zm-111.58 -149.69l-47 -63.05 205.62 0.83 74.39 63.16 -233.01 -0.94zm-111.59 -149.7l-47 -63.06 140.57 0.56 74.4 63.17 -167.97 -0.67zm-111.59 -149.72l-46.98 -63.03 75.54 0.3 74.35 63.14 -102.91 -0.41zm-111.58 -149.7l-46.99 -63.05 10.47 0.04 74.39 63.16 -37.88 -0.15zm-2244.63 1288.32l141.15 -16.36 1953.29 7.88 46.58 63.05 -2042.02 -8.24 -98.99 -46.33zm861.43 -99.87l523.75 -60.72 598.68 2.42 46.56 63.03 -1168.99 -4.73zm1343.6 241.11l46.56 63.03 -1830.89 -7.4 -135.44 -63.38 1919.78 7.75zm219.7 297.42l46.56 63.03 -1411.38 -5.7 -135.45 -63.39 1500.28 6.06zm110.6 149.72l46.55 63.02 -1200.25 -4.86 -135.42 -63.37 1289.13 5.21zm110.57 149.69l46.57 63.05 -989.07 -3.99 -135.47 -63.4 1077.98 4.35zm110.59 149.72l46.55 63.03 -777.92 -3.14 -135.44 -63.39 866.82 3.5zm110.56 149.67l46.58 63.07 -566.76 -2.28 -135.52 -63.43 655.71 2.64zm110.58 149.72l46.56 63.03 -355.65 -1.44 -135.44 -63.38 444.54 1.79zm110.58 149.69l46.57 63.05 -144.49 -0.58 -135.48 -63.41 233.41 0.94zm110.58 149.72l11.65 15.77 -33.89 -15.86 22.24 0.09z"/>
  <path class="fil2" d="M2773.78 3318.09l1688.08 6.82 46.57 63.03 -1599.19 -6.46 -135.45 -63.39zm2797.72 11.29l732.23 2.95 74.38 63.15 -759.62 -3.06 -47 -63.04zm2154.07 71.55l-10.76 -0.05 9.38 -12.94 1.38 12.99zm-117.73 -448.26l-76.1 -63.15 105.23 0.42c5.14,20.88 9.97,41.87 14.77,62.9l-43.89 -0.17zm-180.76 -149.98l-76.13 -63.17 246.18 0.99c6.07,20.89 11.86,41.88 17.57,62.94l-187.62 -0.76zm-180.77 -149.98l-76.12 -63.16 380.2 1.53c7.04,20.88 13.83,41.88 20.49,62.94l-324.57 -1.31zm-180.76 -149.98l-76.13 -63.16 507.01 2.04c8.06,20.88 15.87,41.88 23.57,62.95l-454.45 -1.83zm-180.79 -150l-76.1 -63.14 626.24 2.52c9.14,20.87 18.04,41.87 26.8,62.95l-576.94 -2.33zm-180.78 -149.98l-76.11 -63.16 737.49 2.97c10.28,20.87 20.35,41.88 30.26,62.98l-691.63 -2.79zm-180.78 -150l-76.12 -63.16 840.29 3.39c11.5,20.87 22.81,41.87 33.92,62.99l-798.09 -3.22zm-180.77 -149.98l-76.12 -63.16 934.07 3.76c12.81,20.87 25.45,41.86 37.86,63.01l-895.8 -3.61zm-180.76 -149.98l-76.13 -63.17 1018.08 4.11c14.23,20.85 28.22,41.87 42.03,63.03l-983.98 -3.97zm-180.79 -150l-76.1 -63.14 1091.05 4.41c15.78,20.84 31.34,41.84 46.69,63.02l-1061.63 -4.29zm-180.76 -149.97l-76.13 -63.17 1152.48 4.66c17.51,20.82 34.76,41.86 51.82,63.07l-1128.17 -4.56zm-180.77 -149.98l-76.12 -63.16 1200.21 4.85c19.46,20.81 38.71,41.83 57.7,63.08l-1181.79 -4.77zm-180.77 -149.98l-76.12 -63.17 1232.88 4.98c21.75,20.81 43.3,41.8 64.55,63.12l-1221.3 -4.93zm-180.79 -150l-76.1 -63.15 1247.57 5.05c24.38,20.75 48.51,41.78 72.37,63.13l-1243.83 -5.03zm-180.78 -150l-76.11 -63.14 1240.33 5.01c27.67,20.71 55.12,41.73 82.21,63.17l-1246.42 -5.04zm-180.77 -149.98l-76.12 -63.16 1205.59 4.87c31.87,20.63 63.47,41.69 94.68,63.24l-1224.16 -4.95zm-180.78 -149.98l-76.1 -63.15 1133.92 4.58c37.62,20.5 74.89,41.57 111.76,63.29l-1169.58 -4.72zm-180.76 -149.98l-76.12 -63.16 1007.53 4.06c46.45,20.26 92.44,41.39 137.98,63.41l-1069.38 -4.32zm-180.79 -150l-76.1 -63.15 782.14 3.16c63.47,19.65 126.32,40.82 188.49,63.6l-894.53 -3.61zm-180.75 -149.97l-76.14 -63.17 225.03 0.9c135.98,14.49 270.31,36.15 402.52,64.5l-551.41 -2.23zm3560.28 3382.46c1.73,20.91 3.28,41.85 4.68,62.86l-129.78 -0.52 45.41 -62.66 79.69 0.32zm9.41 149.31c0.6,13.68 1.12,27.36 1.57,41.08 0.24,7.27 0.29,14.5 0.48,21.76l-244.46 -0.98 45.41 -62.66 196.99 0.8zm3.45 149.26c0.11,20.98 0.22,41.96 -0.01,62.86l-353.74 -1.43 45.43 -62.67 308.31 1.24zm-1.94 149.24c-0.71,21.01 -1.72,41.93 -2.77,62.85l-456.9 -1.84 45.42 -62.68 414.25 1.67zm-8.04 149.22c-1.54,21 -3.29,41.94 -5.17,62.84l-1556.2 -6.28 -47 -63.06 1056.55 4.27 23.43 19.89 14.31 -19.74 514.08 2.08zm-13.88 149.21c-2.37,21 -4.86,41.93 -7.57,62.81l-1428.33 -5.77 -46.98 -63.03 1482.88 5.99zm-19.78 149.17c-3.22,20.99 -6.52,41.95 -10.08,62.82l-1294.44 -5.23 -46.99 -63.05 1351.51 5.46zm-25.9 149.17c-4.09,20.98 -8.21,41.94 -12.65,62.78l-1154.39 -4.66 -46.98 -63.02 1214.02 4.9zm-32.17 149.11c-5,21.02 -10.17,41.94 -15.53,62.8l-1007.75 -4.06 -47 -63.06 1070.27 4.33zm-38.73 149.11c-5.95,21.03 -12.17,41.92 -18.47,62.78l-950.09 -3.83 45.41 -62.68 923.14 3.73zm-45.62 149.08c-6.92,21.03 -14.12,41.91 -21.41,62.75l-1009.39 -4.07 45.41 -62.65 985.38 3.97zm-52.69 149.04c-7.95,21.04 -16.19,41.93 -24.51,62.76l-1061.46 -4.29 45.42 -62.68 1040.55 4.21zm-60.14 149.01c-9.05,21.05 -18.35,41.92 -27.77,62.74l-1105.91 -4.47 45.42 -62.67 1088.26 4.4zm-68.08 148.97c-10.21,21.04 -20.64,41.95 -31.24,62.74l-1142.24 -4.62 45.43 -62.68 1128.04 4.56zm-76.71 148.96c-11.44,21.03 -23.06,41.95 -34.9,62.7l-1169.71 -4.73 45.4 -62.66 1159.21 4.69zm-85.9 148.9c-12.83,21.06 -25.83,41.96 -39.07,62.7l-1187.52 -4.8 45.42 -62.67 1181.17 4.77zm-95.88 148.88c-14.34,21.07 -28.88,41.96 -43.64,62.67l-2381.78 -9.62 -78.31 -63.15 2503.74 10.1zm-106.85 148.83c-16.03,21.1 -32.3,41.97 -48.78,62.65l-2083.77 -8.41 -78.32 -63.16 2210.88 8.92zm-119.95 148.77c-17.97,21.12 -36.18,41.99 -54.64,62.63l-1771.94 -7.15 -78.34 -63.18 1904.92 7.7zm-134.13 148.72c-20.26,21.17 -40.85,41.99 -61.63,62.6l-1444.79 -5.84 -78.31 -63.16 1584.74 6.4zm-151.57 148.64c-23.02,21.2 -46.33,42.05 -69.9,62.58l-1098.91 -4.44 -78.34 -63.18 1247.16 5.04zm-172.85 148.57c-26.52,21.27 -53.39,42.09 -80.55,62.52l-1012.09 -4.08 45.41 -62.66 1047.22 4.23zm-200.16 148.43c-31.28,21.41 -62.96,42.18 -94.96,62.49l-905.41 -3.65 45.44 -62.7 954.93 3.86zm-238.12 148.3c-38.27,21.59 -77.05,42.34 -116.23,62.38l-753.9 -3.05 45.42 -62.65 824.71 3.32zm-297.47 148.07c-50.8,22.06 -102.27,42.77 -154.35,62.22l-526.21 -2.12 45.41 -62.66 635.14 2.56zm-1190.33 -1285.28l-78.34 -63.17 1296.52 5.23 130.85 63.39 -1349.03 -5.45zm-186.02 -150.02l-78.3 -63.15 1171.79 4.73 130.82 63.37 -1224.31 -4.95zm-185.98 -149.99l-78.34 -63.18 1047.09 4.23 130.87 63.4 -1099.62 -4.45zm-186.01 -150.01l-78.31 -63.16 922.38 3.72 130.84 63.38 -974.91 -3.94zm-185.99 -150l-78.33 -63.17 797.67 3.22 130.85 63.38 -850.19 -3.43zm-186.02 -150.01l-78.3 -63.16 672.96 2.71 130.81 63.37 -725.47 -2.92zm-185.97 -149.99l-78.35 -63.19 548.22 2.21 130.88 63.4 -600.75 -2.42zm-186.02 -150.02l-78.33 -63.18 423.49 1.71 130.85 63.39 -476 -1.92zm-186.03 -150.02l-78.29 -63.15 298.79 1.21 130.78 63.35 -351.27 -1.41zm-186 -150l-78.32 -63.17 174.05 0.7 130.84 63.38 -226.56 -0.91zm-186.03 -150.02l-78.3 -63.16 49.35 0.2 130.8 63.37 -101.84 -0.41zm3414.07 -284.71l-46.99 -63.04 991.51 3.99 74.39 63.16 -1018.91 -4.11zm-111.58 -149.7l-46.99 -63.05 926.47 3.74 74.38 63.16 -953.86 -3.85zm-111.6 -149.72l-46.98 -63.03 861.44 3.48 74.36 63.14 -888.82 -3.59zm-111.59 -149.71l-46.99 -63.04 796.41 3.22 74.36 63.14 -823.78 -3.32zm-221.71 -297.44l-46.99 -63.03 667.21 2.69 74.36 63.14 -694.58 -2.8zm-111.59 -149.7l-47 -63.05 602.17 2.43 74.38 63.16 -629.55 -2.54zm-111.6 -149.72l-46.98 -63.03 537.13 2.17 74.36 63.14 -564.51 -2.28zm-111.58 -149.69l-47 -63.06 472.1 1.91 74.39 63.17 -499.49 -2.02zm-111.58 -149.71l-46.99 -63.04 407.06 1.65 74.37 63.15 -434.44 -1.76zm-111.59 -149.69l-47 -63.05 342.03 1.38 74.39 63.16 -369.43 -1.49zm-111.59 -149.72l-46.98 -63.03 276.99 1.11 74.35 63.14 -304.37 -1.22zm-111.6 -149.71l-46.98 -63.04 211.95 0.85 74.37 63.15 -239.34 -0.96zm-111.58 -149.71l-47 -63.05 146.9 0.59 74.39 63.16 -174.29 -0.7zm-111.59 -149.71l-46.99 -63.04 81.87 0.33 74.36 63.15 -109.24 -0.44zm-111.58 -149.7l-46.99 -63.05 16.8 0.07 74.39 63.16 -44.2 -0.18zm-2255.48 1273.77l20.15 -2.33 2085.05 8.42 46.57 63.04 -2021.49 -8.16 -130.28 -60.96zm740.44 -85.84l523.75 -60.72 730.42 2.95 46.56 63.03 -1300.73 -5.26zm1475.34 241.64l46.56 63.03 -1810.35 -7.31 -135.44 -63.39 1899.24 7.67zm219.71 297.42l46.56 63.04 -1390.84 -5.61 -135.46 -63.4 1479.75 5.97zm110.59 149.72l46.55 63.03 -1179.68 -4.77 -135.45 -63.39 1268.59 5.13zm110.57 149.69l46.57 63.05 -968.53 -3.9 -135.48 -63.41 1057.45 4.27zm110.58 149.71l46.57 63.04 -757.39 -3.06 -135.46 -63.39 846.29 3.41zm110.57 149.68l46.58 63.06 -546.25 -2.2 -135.5 -63.42 635.18 2.56zm110.58 149.72l46.56 63.03 -335.11 -1.35 -135.44 -63.39 424 1.71zm110.58 149.7l46.57 63.04 -123.95 -0.5 -135.48 -63.4 212.87 0.86zm110.59 149.72l0.89 1.2 -2.58 -1.21 1.69 0.01z"/>
  <path class="fil3" d="M2818.78 3339.16l1658.55 6.7 46.56 63.02 -1569.66 -6.34 -135.44 -63.38zm2768.33 11.17l741.34 2.99 74.35 63.14 -768.71 -3.1 -46.99 -63.03zm2140.57 71.49l-27.97 -0.12 24.47 -33.75c1.22,11.27 2.38,22.57 3.5,33.87zm-94.55 -448.16l-76.12 -63.17 85.11 0.35c5,20.87 9.65,41.88 14.29,62.91l-23.28 -0.09zm-180.77 -149.98l-76.12 -63.17 227.04 0.92c5.92,20.87 11.51,41.89 17.07,62.93l-167.99 -0.68zm-180.79 -150l-76.1 -63.15 362.02 1.46c6.89,20.87 13.51,41.88 20.03,62.93l-305.95 -1.24zm-180.76 -149.98l-76.13 -63.16 489.86 1.97c7.91,20.88 15.58,41.88 23.13,62.95l-436.86 -1.76zm-180.78 -149.99l-76.11 -63.15 610.23 2.46c8.98,20.86 17.66,41.88 26.27,62.95l-560.39 -2.26zm-180.75 -149.96l-76.14 -63.18 722.57 2.91c10.12,20.87 19.97,41.88 29.72,62.99l-676.15 -2.72zm-180.79 -150l-76.13 -63.17 826.51 3.34c11.32,20.87 22.41,41.87 33.34,62.99l-783.72 -3.16zm-180.79 -150l-76.1 -63.15 921.46 3.72c12.62,20.86 25.02,41.85 37.23,62.99l-882.6 -3.56zm-180.76 -149.97l-76.13 -63.17 1006.84 4.06c14.02,20.86 27.83,41.87 41.45,63.03l-972.15 -3.92zm-180.78 -150l-76.1 -63.15 1081.66 4.37c15.55,20.84 30.88,41.86 46.01,63.04l-1051.56 -4.26zm-180.76 -149.97l-76.13 -63.17 1144.51 4.63c17.26,20.83 34.27,41.85 51.09,63.06l-1119.47 -4.52zm-180.79 -150l-76.1 -63.15 1194.51 4.83c19.18,20.82 38.18,41.81 56.9,63.07l-1175.31 -4.75zm-180.77 -149.98l-76.12 -63.17 1229.38 4.97c21.37,20.77 42.43,41.85 63.32,63.12l-1216.58 -4.92zm-180.78 -149.99l-76.11 -63.15 1246.62 5.03c23.97,20.74 47.66,41.81 71.11,63.14l-1241.62 -5.02zm-180.77 -149.99l-76.12 -63.15 1242.85 5.02c27.13,20.68 53.94,41.77 80.5,63.17l-1247.23 -5.04zm-180.77 -149.97l-76.12 -63.17 1212.54 4.9c31.16,20.61 61.96,41.73 92.49,63.23l-1228.91 -4.96zm-180.78 -150l-76.11 -63.15 1146.92 4.64c36.6,20.49 72.83,41.62 108.71,63.27l-1179.52 -4.76zm-180.76 -149.97l-76.13 -63.18 1029.64 4.17c44.87,20.29 89.29,41.46 133.28,63.4l-1086.79 -4.39zm-180.77 -149.99l-76.12 -63.15 823.02 3.31c60.16,19.81 119.79,40.93 178.74,63.57l-925.64 -3.73zm-180.78 -149.99l-76.11 -63.15 366.89 1.48c110.86,16.71 220.46,38.2 328.54,64.17l-619.32 -2.5zm3536.67 3382.38c1.61,20.91 3.05,41.85 4.33,62.85l-146.2 -0.59 45.41 -62.65 96.46 0.39zm8.59 149.28l0.72 20.21c0.47,14.26 0.65,28.44 0.93,42.65l-260 -1.05 45.43 -62.68 212.92 0.86zm2.59 149.26c-0.03,20.99 -0.1,41.96 -0.46,62.86l-368.35 -1.49 45.43 -62.68 323.38 1.31zm-2.85 149.26c-0.82,20.97 -1.62,41.94 -2.78,62.82l-471.05 -1.9 45.41 -62.65 428.42 1.73zm-8.57 149.22c-1.64,21.01 -3.56,41.93 -5.56,62.83l-1538.75 -6.22 -46.99 -63.04 1591.29 6.43zm-14.73 149.19c-2.49,21.01 -5.22,41.94 -8.05,62.83l-1409.93 -5.7 -46.99 -63.04 1464.97 5.91zm-20.73 149.17c-3.34,21.01 -6.87,41.94 -10.55,62.82l-1275.11 -5.15 -47.01 -63.06 1332.67 5.39zm-26.84 149.16c-4.23,21 -8.56,41.93 -13.13,62.78l-1134.12 -4.58 -46.99 -63.03 1194.23 4.83zm-33.14 149.11c-5.14,21 -10.36,41.96 -15.84,62.8l-986.67 -3.98 -47 -63.05 1049.51 4.24zm-39.71 149.11c-6.08,21 -12.21,41.95 -18.64,62.78l-958.87 -3.86 45.41 -62.68 932.09 3.76zm-46.53 149.07c-7.06,21.01 -14.19,41.95 -21.61,62.76l-1017.23 -4.1 45.41 -62.67 993.42 4.01zm-53.69 149.02c-8.1,21.01 -16.29,41.97 -24.75,62.77l-1068.25 -4.32 45.43 -62.68 1047.56 4.23zm-61.26 149.03c-9.19,21.01 -18.49,41.94 -28.06,62.72l-1111.53 -4.49 45.41 -62.66 1094.18 4.43zm-69.29 148.97c-10.36,21.03 -20.9,41.95 -31.65,62.73l-1146.52 -4.64 45.41 -62.67 1132.76 4.58zm-77.87 148.94c-11.63,21.04 -23.47,41.95 -35.5,62.71l-1172.67 -4.74 45.41 -62.66 1162.75 4.69zm-87.13 148.9c-13.04,21.07 -26.26,41.95 -39.71,62.7l-1189.21 -4.8 45.42 -62.68 1183.49 4.78zm-97.18 148.88c-14.55,21.07 -29.34,41.95 -44.32,62.66l-2341.03 -9.46 -78.31 -63.15 2463.66 9.95zm-108.96 148.83c-16.29,21.09 -32.8,41.96 -49.54,62.63l-2040.81 -8.24 -78.32 -63.15 2168.68 8.76zm-121.5 148.75c-18.25,21.11 -36.7,42.02 -55.45,62.64l-1727.37 -6.98 -78.34 -63.17 1861.17 7.51zm-136.67 148.71c-20.6,21.15 -41.45,42.02 -62.58,62.6l-1397.56 -5.65 -78.33 -63.16 1538.47 6.21zm-154.22 148.62c-23.48,21.22 -47.26,42.06 -71.3,62.58l-1078.49 -4.36 10.97 -15.14 -59.43 -47.92 1198.25 4.84zm-176.24 148.56c-27.08,21.27 -54.49,42.11 -82.2,62.51l-999.23 -4.03 45.42 -62.66 1036 4.19zm-204.72 148.42c-31.99,21.37 -64.32,42.24 -97.06,62.47l-887.54 -3.58 45.43 -62.68 939.16 3.79zm-244.75 148.27c-39.47,21.59 -79.37,42.43 -119.77,62.37l-727.97 -2.94 45.43 -62.66 802.31 3.23zm-308.57 148.03c-53.45,22.18 -107.63,42.9 -162.46,62.19l-484.6 -1.95 45.42 -62.67 601.64 2.43zm-1115.72 -1284.97l-78.34 -63.19 1313.96 5.31 130.86 63.39 -1366.47 -5.51zm-186.02 -150.02l-78.3 -63.16 1189.26 4.81 130.81 63.36 -1241.76 -5.01zm-185.99 -150l-78.32 -63.17 1064.54 4.3 130.85 63.38 -1117.07 -4.51zm-186.02 -150.02l-78.3 -63.16 939.83 3.79 130.81 63.37 -992.34 -4zm-185.97 -149.99l-78.35 -63.19 815.11 3.29 130.86 63.4 -867.62 -3.5zm-186.01 -150.01l-78.32 -63.16 690.39 2.78 130.84 63.38 -742.91 -3zm-185.99 -150l-78.33 -63.18 565.66 2.29 130.87 63.38 -618.2 -2.49zm-186.02 -150.02l-78.33 -63.17 440.93 1.77 130.85 63.39 -493.45 -1.99zm-186.02 -150.02l-78.32 -63.15 316.23 1.27 130.82 63.37 -368.72 -1.49zm-186 -149.98l-78.33 -63.19 191.47 0.77 130.89 63.4 -244.02 -0.98zm-186.01 -150.02l-78.31 -63.16 66.8 0.27 130.82 63.37 -119.3 -0.48zm3403.64 -284.78l-46.99 -63.02 1000.62 4.03 74.35 63.14 -1027.98 -4.16zm-111.58 -149.69l-47 -63.06 935.56 3.78 74.39 63.16 -962.95 -3.88zm-111.59 -149.71l-46.99 -63.04 870.53 3.51 74.38 63.16 -897.92 -3.63zm-111.6 -149.71l-46.98 -63.03 805.5 3.24 74.36 63.14 -832.89 -3.35zm-221.72 -297.45l-46.98 -63.03 676.3 2.73 74.35 63.13 -703.67 -2.83zm-111.58 -149.7l-47 -63.05 611.26 2.47 74.38 63.16 -638.64 -2.58zm-111.59 -149.71l-46.99 -63.04 546.22 2.21 74.38 63.15 -573.61 -2.32zm-111.59 -149.69l-47 -63.05 481.2 1.94 74.38 63.16 -508.58 -2.05zm-111.59 -149.72l-46.99 -63.03 416.16 1.68 74.36 63.14 -443.54 -1.79zm-111.59 -149.7l-47 -63.05 351.12 1.41 74.39 63.16 -378.52 -1.52zm-111.59 -149.71l-46.98 -63.04 286.09 1.15 74.37 63.15 -313.48 -1.26zm-111.57 -149.69l-47.01 -63.06 221.05 0.89 74.39 63.17 -248.43 -1zm-111.59 -149.72l-47 -63.05 155.99 0.63 74.4 63.16 -183.39 -0.74zm-111.6 -149.72l-46.98 -63.03 90.95 0.37 74.36 63.14 -118.33 -0.48zm-111.58 -149.69l-47 -63.06 25.91 0.11 74.39 63.16 -53.3 -0.21zm-1704.73 1187.16l523.81 -60.73 919.91 3.71 46.56 63.04 -1490.28 -6.02zm1244.03 -144.22l124.6 -14.45 11.07 14.99 -135.67 -0.54zm310.26 236.91l46.58 63.04 -1991.95 -8.03 -135.49 -63.42 2080.87 8.41zm110.59 149.71l46.55 63.02 -1780.82 -7.19 -135.44 -63.38 1869.72 7.55zm219.71 297.44l46.56 63.02 -1361.31 -5.5 -135.44 -63.38 1450.2 5.86zm110.58 149.7l46.57 63.04 -1150.15 -4.65 -135.46 -63.39 1239.05 5zm110.57 149.69l46.58 63.05 -938.99 -3.78 -135.51 -63.42 1027.93 4.16zm110.59 149.72l46.56 63.02 -727.88 -2.94 -135.43 -63.38 816.76 3.3zm110.58 149.7l46.56 63.03 -516.7 -2.08 -135.47 -63.4 605.62 2.45zm110.58 149.7l46.56 63.04 -305.56 -1.23 -135.46 -63.4 394.47 1.59zm110.56 149.69l46.58 63.05 -94.41 -0.38 -135.5 -63.41 183.34 0.74z"/>
  <path class="fil4" d="M13362 6484.03l116.34 30.82c-43.59,99.91 -103.19,175.88 -178.82,228.31 -75.62,52.41 -161.3,78.74 -256.95,78.74 -98.84,0 -175.65,-20.11 -230.35,-60.56 -54.74,-40.22 -91.21,-98.62 -109.64,-175.02 -18.41,-76.6 -19.79,-158.54 -3.84,-246.28 17.37,-95.64 50.74,-179.08 100.23,-250.32 49.52,-71.25 111.36,-125.4 185.49,-162.41 74.1,-37.01 151.71,-55.42 232.59,-55.42 91.99,0 165,23.31 218.97,70.17 54.18,46.86 85.9,112.55 95.13,197.27l-124.53 28.26c-9.07,-66.77 -31.24,-115.55 -66.17,-145.95 -34.86,-30.59 -83.03,-45.78 -144.41,-45.78 -70.4,0 -132.53,16.89 -185.96,50.71 -53.43,33.81 -95.09,79.39 -124.46,136.28 -29.63,57.14 -49.95,115.97 -60.96,176.53 -14.18,78.08 -15.23,146.35 -3.11,204.55 12.06,58.42 39.48,101.84 82.17,130.73 42.68,28.88 91.85,43.24 147.69,43.24 68.05,0 128.96,-19.68 183.15,-58.85 54.24,-39.38 96.66,-97.58 127.44,-175.03zm132.74 -124.95c27.66,-152.35 90.42,-271.74 188.05,-357.97 97.6,-86.23 211.13,-129.23 340.78,-129.23 84.95,0 157.64,20.31 218.57,60.77 60.68,40.42 102.4,96.91 124.97,169.44 22.6,72.33 25.65,154.49 8.99,246.27 -16.91,93.1 -50.91,176.54 -101.89,249.92 -51.04,73.62 -114.4,129.25 -190.14,166.88 -76,37.9 -153.88,56.72 -233.67,56.72 -86.65,0 -160.09,-20.97 -220.76,-62.7 -60.49,-41.73 -101.92,-98.63 -123.88,-170.96 -21.99,-72.11 -25.67,-148.51 -11.02,-229.16zm125.41 2.14c-20.07,110.61 -6.15,197.7 41.82,261.26 47.95,63.53 116.8,95.44 206.65,95.44 91.58,0 172.51,-32.11 243.46,-96.29 70.73,-64.21 116.77,-155.35 138.23,-273.46 13.58,-74.66 12.8,-139.93 -2.34,-195.57 -15.14,-55.64 -44.32,-98.85 -87.34,-129.45 -43.22,-30.6 -94.98,-46.01 -155.55,-46.01 -86.01,0 -165.4,29.54 -238.17,88.57 -72.78,59.06 -121.7,157.48 -146.77,295.51zm701.51 445.26l166.94 -919.21 182.31 0 99.19 650.69c9.13,60.53 15.44,105.92 19.17,136.08 16.54,-33.39 41.95,-82.59 75.96,-147.42l337.38 -639.35 162.82 0 -166.95 919.21 -116.82 0 139.67 -769 -407.98 769 -109.55 0 -123.06 -783.13 -142.26 783.13 -116.81 0zm1715.92 -919.21l121.99 0 -96.41 530.87c-16.81,92.44 -40.61,165.82 -71.25,220.15 -30.81,54.16 -76.5,98.43 -137.05,132.47 -60.71,34.01 -135.08,51.13 -223.65,51.13 -85.8,0 -153.51,-14.76 -202.71,-44.49 -49.35,-29.75 -80.49,-72.56 -93.61,-128.83 -13.14,-56.26 -10.94,-133.09 6.76,-230.43l96.42 -530.87 121.95 0 -96.39 530.64c-14.48,79.82 -17.73,138.88 -9.81,176.53 7.91,37.87 27.84,67.18 60.3,87.52 32.2,20.54 74.41,30.8 126.4,30.8 89.03,0 156.28,-20.31 201.47,-60.76 45.28,-40.65 78.23,-118.53 99.2,-234.08l96.39 -530.64zm31.71 919.21l166.95 -919.21 124.96 0 351.23 721.5 131.05 -721.5 116.83 0 -166.96 919.21 -124.97 0 -351.24 -721.5 -131.03 721.5 -116.82 0zm823.84 0l166.97 -919.21 121.96 0 -166.97 919.21 -121.96 0zm924.4 -322.45l116.34 30.82c-43.59,99.91 -103.19,175.88 -178.83,228.31 -75.62,52.41 -161.29,78.74 -256.92,78.74 -98.86,0 -175.65,-20.11 -230.37,-60.56 -54.74,-40.22 -91.2,-98.62 -109.64,-175.02 -18.39,-76.6 -19.77,-158.54 -3.83,-246.28 17.37,-95.64 50.73,-179.08 100.22,-250.32 49.53,-71.25 111.38,-125.4 185.49,-162.41 74.12,-37.01 151.71,-55.42 232.59,-55.42 91.99,0 165,23.31 218.98,70.17 54.17,46.86 85.89,112.55 95.13,197.27l-124.53 28.26c-9.08,-66.77 -31.25,-115.55 -66.16,-145.95 -34.87,-30.59 -83.05,-45.78 -144.44,-45.78 -70.38,0 -132.5,16.89 -185.95,50.71 -53.43,33.81 -95.07,79.39 -124.44,136.28 -29.66,57.14 -49.96,115.97 -60.96,176.53 -14.2,78.08 -15.25,146.35 -3.13,204.55 12.06,58.42 39.47,101.84 82.16,130.73 42.69,28.88 91.86,43.24 147.7,43.24 68.06,0 128.96,-19.68 183.15,-58.85 54.24,-39.38 96.68,-97.58 127.44,-175.03zm-12.06 322.45l519.58 -919.21 133.73 0 207.26 919.21 -138.44 0 -55.71 -278.58 -387.09 0 -150.33 278.58 -129.01 0zm333.03 -377.44l313.24 0 -49.56 -254.85c-14.84,-77.43 -25.05,-141.41 -31.09,-191.92 -23.47,59.91 -51.07,118.76 -82.84,176.96l-149.75 269.81zm1212.26 54.99l116.36 30.82c-43.59,99.91 -103.21,175.88 -178.84,228.31 -75.62,52.41 -161.3,78.74 -256.92,78.74 -98.87,0 -175.66,-20.11 -230.38,-60.56 -54.73,-40.22 -91.2,-98.62 -109.62,-175.02 -18.4,-76.6 -19.78,-158.54 -3.85,-246.28 17.37,-95.64 50.73,-179.08 100.24,-250.32 49.53,-71.25 111.37,-125.4 185.48,-162.41 74.12,-37.01 151.72,-55.42 232.59,-55.42 92,0 165,23.31 218.98,70.17 54.18,46.86 85.9,112.55 95.12,197.27l-124.53 28.26c-9.06,-66.77 -31.25,-115.55 -66.15,-145.95 -34.87,-30.59 -83.05,-45.78 -144.44,-45.78 -70.38,0 -132.51,16.89 -185.96,50.71 -53.41,33.81 -95.07,79.39 -124.44,136.28 -29.65,57.14 -49.95,115.97 -60.96,176.53 -14.18,78.08 -15.24,146.35 -3.12,204.55 12.07,58.42 39.47,101.84 82.16,130.73 42.69,28.88 91.86,43.24 147.71,43.24 68.05,0 128.94,-19.68 183.14,-58.85 54.24,-39.38 96.67,-97.58 127.43,-175.03zm-434.64 432.86l52.57 -110.41 83.44 0 -32.89 66.75c34.96,4.3 59.94,15.21 74.91,32.96 15,17.54 20.4,37.22 16.47,58.85 -5.69,31.23 -25.86,58.83 -60.59,82.79 -34.51,23.96 -82.5,35.94 -143.46,35.94 -34.48,0 -64.84,0 -90.94,0l20.88 -79.59c27.02,0.85 46.64,1.28 59.45,1.28 39.59,0 68.57,-5.36 86.61,-16.27 13.73,-8.35 21.74,-18.4 23.96,-30.6 1.35,-7.49 0.2,-14.13 -3.65,-19.88 -3.66,-5.79 -11.48,-10.91 -23.6,-14.99 -12.29,-4.06 -33.29,-6.41 -63.16,-6.84zm422.59 -110.41l519.58 -919.21 133.74 0 207.26 919.21 -138.46 0 -55.71 -278.58 -387.1 0 -150.3 278.58 -129.02 0zm333.03 -377.44l313.24 0 -49.57 -254.85c-14.83,-77.43 -25.05,-141.41 -31.08,-191.92 -23.47,59.91 -51.08,118.76 -82.84,176.96l-149.75 269.81zm55.14 -596.96c7.39,-43.01 25.56,-77.25 54.42,-102.92 28.38,-25.46 61.3,-38.29 98.54,-38.29 25.86,0 59.22,10.91 99.73,32.94 22.37,12.18 40.94,18.4 55.48,18.4 13.5,0 24.41,-3.64 32.79,-10.91 8.34,-7.07 15.94,-21.63 22.79,-43.01l80.89 0c-9.91,47.51 -28.35,83.03 -55.34,106.77 -27,23.76 -57.84,35.74 -92.92,35.74 -26.11,0 -58.63,-11.76 -97.21,-35.09 -25.28,-15.19 -44.45,-22.68 -57.51,-22.68 -14.11,0 -26.57,4.91 -36.94,14.96 -10.96,9.85 -18.16,24.61 -21.27,44.09l-83.44 0zm487.85 527c27.67,-152.35 90.42,-271.74 188.04,-357.97 97.6,-86.23 211.12,-129.23 340.78,-129.23 84.94,0 157.65,20.31 218.56,60.77 60.7,40.42 102.43,96.91 124.98,169.44 22.61,72.33 25.66,154.49 9.01,246.27 -16.92,93.1 -50.92,176.54 -101.9,249.92 -51.04,73.62 -114.42,129.25 -190.13,166.88 -76,37.9 -153.9,56.72 -233.68,56.72 -86.67,0 -160.09,-20.97 -220.76,-62.7 -60.49,-41.73 -101.93,-98.63 -123.87,-170.96 -22,-72.11 -25.67,-148.51 -11.03,-229.16zm125.41 2.14c-20.08,110.61 -6.16,197.7 41.78,261.26 47.97,63.53 116.84,95.44 206.68,95.44 91.59,0 172.53,-32.11 243.46,-96.29 70.71,-64.21 116.78,-155.35 138.22,-273.46 13.57,-74.66 12.82,-139.93 -2.32,-195.57 -15.14,-55.64 -44.32,-98.85 -87.35,-129.45 -43.22,-30.6 -94.98,-46.01 -155.55,-46.01 -85.99,0 -165.39,29.54 -238.15,88.57 -72.79,59.06 -121.71,157.48 -146.78,295.51zm1322.64 445.26l-188.23 -919.21 131.81 0 117.46 668.01c9.32,53.49 16.5,103.57 20.83,150.41 23.27,-50.28 48.81,-100.33 76.75,-150.41l369.12 -668.01 124.08 0 -525.36 919.21 -126.45 0zm489.86 0l166.97 -919.21 121.96 0 -166.97 919.21 -121.96 0zm224.91 -295.28l116.13 -10.25c-3.01,46.21 2.7,84.07 17.19,113.81 14.56,29.55 41.01,53.5 79.4,71.91 38.39,18.17 83.81,27.37 136.02,27.37 46.42,0 88.52,-6.84 126.58,-20.75 38.04,-13.9 67.81,-32.95 89.56,-57.14 21.69,-24.16 35.24,-50.48 40.38,-78.74 5.22,-28.66 1.4,-53.7 -11.37,-75.3 -12.79,-21.42 -37.1,-39.37 -72.92,-54.16 -22.92,-9.4 -74.76,-24.38 -155.59,-44.69 -80.85,-20.34 -136.42,-39.37 -166.98,-57.35 -39.63,-23.13 -66.97,-51.79 -82.18,-85.8 -15.45,-34.01 -19.18,-72.33 -11.51,-114.47 8.48,-46.66 29.6,-90.1 63.23,-130.33 33.66,-40.42 77.54,-71.02 132.06,-91.98 54.3,-20.98 112.47,-31.46 174.31,-31.46 68.05,0 126.18,10.91 174.16,32.94 48.03,21.82 82.2,54.16 102.46,96.94 20.28,42.56 26.48,90.94 18.81,144.86l-118.45 8.97c4.34,-57.97 -8.9,-101.84 -39.7,-131.38 -30.74,-29.75 -81.55,-44.5 -152.17,-44.5 -73.58,0 -129.77,13.48 -168.23,40.45 -38.5,26.95 -61.3,59.48 -68.21,97.58 -5.99,32.93 1.06,60.1 20.93,81.5 19.68,21.2 76.67,43.22 171.48,65.49 94.77,22.46 159.06,41.94 192.82,58.63 48.83,24.59 82.76,55.61 101.34,93.49 18.63,37.67 23.36,81.08 14.43,130.31 -8.9,49 -31.13,94.78 -66.99,138 -35.9,43.24 -82.02,76.83 -138.78,100.79 -56.76,23.96 -117.78,35.94 -183.47,35.94 -83.01,0 -150.34,-12.19 -202,-36.37 -51.92,-24.19 -89.16,-60.56 -112.16,-109.33 -23.3,-48.58 -30,-103.55 -20.56,-164.98zm1486.43 -623.93l121.97 0 -96.41 530.87c-16.79,92.44 -40.61,165.82 -71.26,220.15 -30.79,54.16 -76.49,98.43 -137.04,132.47 -60.71,34.01 -135.08,51.13 -223.65,51.13 -85.8,0 -153.53,-14.76 -202.69,-44.49 -49.37,-29.75 -80.53,-72.56 -93.63,-128.83 -13.12,-56.26 -10.93,-133.09 6.76,-230.43l96.42 -530.87 121.97 0 -96.4 530.64c-14.49,79.82 -17.72,138.88 -9.8,176.53 7.89,37.87 27.82,67.18 60.28,87.52 32.2,20.54 74.41,30.8 126.4,30.8 89.02,0 156.28,-20.31 201.47,-60.76 45.27,-40.65 78.24,-118.53 99.22,-234.08l96.39 -530.64zm-67.81 919.21l519.58 -919.21 133.75 0 207.26 919.21 -138.46 0 -55.72 -278.58 -387.09 0 -150.3 278.58 -129.03 0zm333.03 -377.44l313.26 0 -49.58 -254.85c-14.83,-77.43 -25.05,-141.41 -31.07,-191.92 -23.49,59.91 -51.09,118.76 -82.84,176.96l-149.77 269.81zm493.84 377.44l166.95 -919.21 121.97 0 -147.38 811.38 451.9 0 -19.57 107.83 -573.86 0z"/>
  <path class="fil5" d="M10166.84 2685.77l43.86 2734.17 738.56 0 924.68 -2728.96 -355.66 2728.96 941.15 0 333.61 -3685.11 -1269.22 0 -662.13 1943.33 -10.95 -1943.33 -1274.76 0 -898.4 3685.11 936.67 0 552.6 -2734.17zm9308.23 -899.73c287.17,0 501.48,221.92 478.79,495.75 -22.74,273.77 -273.89,495.74 -560.99,495.74 -287.13,0 -501.44,-221.97 -478.75,-495.74 22.72,-273.83 273.86,-495.75 560.95,-495.75zm-1054.71 2921.17l-144.53 720.6 -265.87 15.31c-140.72,13.23 -285.05,22.23 -437.63,22.58 -467.33,1.05 -792.73,-165.88 -769.43,-746.02l241.96 -1197.59 -370.77 0.28 139.46 -724.42 396.55 1.06 108.79 -517.82c335.21,-81.5 914.75,-376.9 1202.46,-650.71l-275.26 1165.01 525.31 -0.88 -146.5 707.05 -558.48 17.34c-63.56,310.26 -127.17,620.44 -190.67,930.65 -54.78,222.31 29.67,288.56 217.23,297.91 83.56,3.99 188.25,-22.5 327.38,-40.35zm5480.63 712.73c334.07,0 668.19,0 1002.23,0l191.48 -1152.61c71.15,-423.74 246.17,-594.3 755.04,-594.3l21.99 0 153.12 -909.58c-328.22,25.72 -596.46,170.46 -815.24,434.05l60.14 -361.8 -935.6 0 -433.16 2584.23zm-1189.84 78.38c827.37,0 1318.68,-794.66 1318.68,-1608.25 0,-739.05 -404.86,-1126.62 -1171,-1126.62 -820.77,0 -1324.06,645.93 -1324.06,1607.25 0,712 507.76,1127.62 1176.38,1127.62zm-191.55 -1065.53c0,-480.66 169.57,-889.03 350.22,-889.03 120.36,0 175.01,93.01 175.01,284.28 0,501.36 -175.01,888.99 -355.66,888.99 -109.33,0 -169.57,-93.02 -169.57,-284.24zm-1133.38 139.61c-76.56,36.1 -153.11,56.77 -229.72,56.77 -186.02,0 -262.61,-98.28 -262.61,-336.01 0,-413.41 185.99,-702.9 410.29,-702.9 87.52,0 158.64,20.8 235.31,67.25l131.33 -790.69c-158.72,-67.3 -322.76,-103.37 -487.07,-103.37 -853.53,0 -1412.45,697.62 -1412.45,1746.86 0,862.94 776.12,1114.55 1478.91,891.96 44.69,-276.74 90.32,-553.3 136,-829.86zm-1948.4 841.93l431.33 -2578.62 -990.32 0 -379.31 2263.03 -63.19 330.32 1001.48 -14.73zm-4251.37 5.61l991.27 0 611.49 -3682.59 -990.34 0 -612.42 3682.59zm-2144.95 -2584.23l-257.21 1550.55c-21.84,118.79 -33.7,227.47 -33.7,325.64 0,465.13 356.52,781.21 1029.43,781.21 787.98,0 1247.62,-373.03 1367.99,-1106.86l262.61 -1550.55 -990.35 0 -273.56 1638.37c-21.92,124.05 -114.86,196.43 -229.89,196.43 -103.86,0 -164.09,-56.77 -164.09,-149.86 0,-15.59 0,-31.1 5.51,-46.57l273.61 -1638.37 -990.36 0z"/>
 </g>
</svg>
